<svg xmlns="http://www.w3.org/2000/svg" version="1.1" xmlns:xlink="http://www.w3.org/1999/xlink" xmlns:svgjs="http://svgjs.dev/svgjs" width="308" height="304" viewBox="0 0 1500 1687"><g transform="matrix(1,0,0,1,0.00044062500001018634,0)"><svg viewBox="0 0 320 360" data-background-color="#000000" preserveAspectRatio="xMidYMid meet" height="1687" width="1500" xmlns="http://www.w3.org/2000/svg" xmlns:xlink="http://www.w3.org/1999/xlink"><g id="tight-bounds" transform="matrix(1,0,0,1,-0.000046999999995023245,0)"><svg viewBox="0 0 320 360" height="360" width="320"><rect width="320.000141" height="360" fill="url(#ba927153-5201-41c2-aa45-b29cbbe15dbe)" mask="url(#e23a60c0-7418-4864-aee7-76fbb2b45227)" data-fill-palette-color="tertiary"></rect><g><svg></svg></g><g><svg viewBox="0 0 320 360" height="360" width="320"><g><path transform="translate(-74.99272,-51.79039) scale(4.65793,4.65793)" d="M20.6 59.9l0.8 1-0.4-1.3c-0.1-0.6-0.8 0.1-0.4 0.3M21.5 59.3c0.3 0.5 0.6 1 0.6 1.5 0 0.7 0.6 1 1.1 1.2-0.7-0.8-1.1-3-1.7-2.7M59.9 16.9c1.7 0 3.3-0.2 5.1 0.2 4.4 1.1 8.1 3.3 10.6 6.4l7 11.2c0.3 2.8 0.9 5.9 0.8 9.3 0.7 0 0.6-1 1.4-1.2-0.8 2-1.2 4.5-1.4 7.4-0.5-1.6 0-4 0.1-5.3-0.7 1.1-1.1 0.3-1.1-0.2 0.1-0.8-0.3-0.7-0.6-1-1.1-1-1.8-2.1-2.6-3.8 0.5-1.3 0.6-3.2-1-4.2-0.5-0.3-1.1-0.8-1.4-1.6-0.4-1.1-1.1-2.4-0.9-4.1 0.1-0.5-1.5 1.1-2.4 0.4-3.9-2.7-7.8-5.8-12.5-8.4-2.5 0-4.3-0.9-5.2-2-0.8-1-0.2-2.3 1-2.4 0.7 0 1.5-0.2 2.1 0.2 0.1-0.4 0.5-0.9 1-0.9M50 14.6l0.2 0.1c1 0.2 1.5 1.6 2.6 1.1 0 0.7 0.1 1.4-0.1 1.9-0.3 0.8-1.2 0.8-1.9 0.8-6.7-0.4-10.6 2.4-14.7 4.8-1.1 0.7-2.3 1.2-3.2 2.1-4.3 4-9 7.7-10.1 15.1l-0.9 8.2c-0.1 0.9-1.1 1.8-0.9 2.9l0.7 4.9c-0.7-0.7-1.1 0.2-0.9 0.6 0.1 0.3 0.5 1.3 1.1 0.4 0.8 1.5 1.6 4.4 2.7 5.7 3.4 4 7.8 7.6 11.4 11.2 0.9-0.2 1.6-0.2 1.8-0.8 0.3 0.6-0.3 1.2-0.8 1.3 1.6 1 3.4 1.9 5.8 2.1 3.1 0.2 6 0.7 8.7 1.4 1.4-0.4 2.8-0.6 4.3-0.7 0.5 0 0.8-0.8 1.4-1l0.1-1c0.6 0.9 0.5-0.3 0.1-0.9 0.7 0.6 0.9 1.1 1.2 1.5 0-0.3 0.8-1.4 0.8-0.1l0.2-1.3c0.3-0.2 0.4 1.1 0.7 0.2 0.3-0.9 0.9-0.2 1.5-0.5-0.2 0.4-0.1 1.2 0.6 0.7l0.8-0.7c0.5 1.2 1.3 0.7 1.7 0.5 4.4-2.8 8.8-6.1 13-9.4l-0.1 1.3 0.5-1.6c0.5 0.5 0.9 0.1 1.1-0.2 0.6-1 1.4-2 2.7-2.9-1.6 4.3-3.5 7.7-5.9 10.5l-1 1.2c0 0.7-0.2 1.6-1 1.7-0.4 0.1-1.2-0.2-1.8 0.4-0.3 0.4 0.7 1.2-0.1 0.6-0.7-0.5-1.4 0-2.2 0.2-0.6 0.2 0.4 0.8 0.6 1.2 0.2 0.4 0.4 0.8 0.3 1.3l-1.1-1.2c-1.3 0.7-2.1 2-3.2 3-0.5 0.4-0.3 1.1-0.3 1.7-0.7 0-1.5-0.2-1.9 0.2-0.3 0.4-0.2 1-0.2 1.6-1-0.1-1.1-1.6-2-1.3-0.9 0.2-1.9 0.3-2.7 0.8 0.6 1.2-1 0.5-0.8 0.7-1.5-0.9-2.8-1.6-4.4-1-3.4-1.1-7.6-0.6-10.7-0.2 0-0.5 0.1-1-0.1-1.1-0.2 0.5-0.8 0.3-0.7 0.3-1.9-1.3-3.8-2.1-5.8-3.2-1.8 0.2-3.5-0.7-4-1.2-1.4-1.3-3-0.6-4.3-0.9-2.8-0.7-3.8-3.6-4.1-5.6-0.2-1-1-1.4-1.3-1.3-1.3-4.2-3.3-8-4.9-11.9-0.4-1-0.3-2-0.3-3.1 0.5 0.2 1 0.1 0.9-0.6-0.5-3.3-1.7-5.8-3-8.2 0.7-3.4 0.8-7.4 2.4-10.4 1.4-2.7 4-4.1 5.8-6.4 0.6-0.8 0.6-1.9 1.2-2.6 2-2 4-4.1 6.2-5.9 1-0.8 2.2 0 3.7-0.3 0.5-1.8 2.5-3.4 4.4-2.9 0.8 0.2 2.4-1.9 2.9-2.1 0.8-0.3 0.4 0.8 0.4 1.5 1.9-1.5 4.5-2.3 6.9-3.2" fill="url(#ba927153-5201-41c2-aa45-b29cbbe15dbe)" fill-rule="nonzero" stroke="none" stroke-width="1" stroke-linecap="butt" stroke-linejoin="miter" stroke-miterlimit="10" stroke-dasharray="" stroke-dashoffset="0" font-family="none" font-weight="none" font-size="none" text-anchor="none" style="mix-blend-mode: normal" data-fill-palette-color="tertiary"></path></g><g transform="matrix(1,0,0,1,64,135.03921601329273)"><svg viewBox="0 0 192 89.92156797341457" height="89.92156797341457" width="192"><g><svg viewBox="0 0 192 89.92156797341457" height="89.92156797341457" width="192"><g><svg viewBox="0 0 192 89.92156797341457" height="89.92156797341457" width="192"><g transform="matrix(1,0,0,1,0,54.35025808695653)"><svg viewBox="0 0 192 35.571309886458046" height="35.571309886458046" width="192"><g id="textblocktransform"><svg viewBox="0 0 192 35.571309886458046" height="35.571309886458046" width="192" id="textblock"><g><svg viewBox="0 0 192 35.571309886458046" height="35.571309886458046" width="192"><g transform="matrix(1,0,0,1,0,0)"><svg width="192" viewBox="0 0 106.00782394174519 104.68749999999999" height="35.571309886458046" data-palette-color="url(#02d95e34-24a1-4afb-bd8e-98aec6e08d5e)"></svg></g></svg></g></svg></g></svg></g><g transform="matrix(1,0,0,1,79.72746700972,0)"><svg viewBox="0 0 32.54506598055999 49.15955026308502" height="49.15955026308502" width="32.54506598055999"><g><svg xmlns="http://www.w3.org/2000/svg" xmlns:xlink="http://www.w3.org/1999/xlink" version="1.1" x="0" y="0" viewBox="24.761855407245655 5 59.58264309935908 90" enable-background="new 0 0 100 100" xml:space="preserve" width="32.54506598055999" height="49.15955026308502" class="icon-icon-0" data-fill-palette-color="accent" id="icon-0"></svg></g></svg></g><g></g></svg></g></svg></g></svg></g></svg></g><defs></defs><mask id="29d54e48-5136-4b98-9104-598c03cc5b13"><g id="SvgjsG2348"><svg viewBox="0 0 320 360" height="360" width="320"><g><svg></svg></g><g><svg viewBox="0 0 320 360" height="360" width="320"><g><path transform="translate(-74.99272,-51.79039) scale(4.65793,4.65793)" d="M20.6 59.9l0.8 1-0.4-1.3c-0.1-0.6-0.8 0.1-0.4 0.3M21.5 59.3c0.3 0.5 0.6 1 0.6 1.5 0 0.7 0.6 1 1.1 1.2-0.7-0.8-1.1-3-1.7-2.7M59.9 16.9c1.7 0 3.3-0.2 5.1 0.2 4.4 1.1 8.1 3.3 10.6 6.4l7 11.2c0.3 2.8 0.9 5.9 0.8 9.3 0.7 0 0.6-1 1.4-1.2-0.8 2-1.2 4.5-1.4 7.4-0.5-1.6 0-4 0.1-5.3-0.7 1.1-1.1 0.3-1.1-0.2 0.1-0.8-0.3-0.7-0.6-1-1.1-1-1.8-2.1-2.6-3.8 0.5-1.3 0.6-3.2-1-4.2-0.5-0.3-1.1-0.8-1.4-1.6-0.4-1.1-1.1-2.4-0.9-4.1 0.1-0.5-1.5 1.1-2.4 0.4-3.9-2.7-7.8-5.8-12.5-8.4-2.5 0-4.3-0.9-5.2-2-0.8-1-0.2-2.3 1-2.4 0.7 0 1.5-0.2 2.1 0.2 0.1-0.4 0.5-0.9 1-0.9M50 14.6l0.2 0.1c1 0.2 1.5 1.6 2.6 1.1 0 0.7 0.1 1.4-0.1 1.9-0.3 0.8-1.2 0.8-1.9 0.8-6.7-0.4-10.6 2.4-14.7 4.8-1.1 0.7-2.3 1.2-3.2 2.1-4.3 4-9 7.7-10.1 15.1l-0.9 8.2c-0.1 0.9-1.1 1.8-0.9 2.9l0.7 4.9c-0.7-0.7-1.1 0.2-0.9 0.6 0.1 0.3 0.5 1.3 1.1 0.4 0.8 1.5 1.6 4.4 2.7 5.7 3.4 4 7.8 7.6 11.4 11.2 0.9-0.2 1.6-0.2 1.8-0.8 0.3 0.6-0.3 1.2-0.8 1.3 1.6 1 3.4 1.9 5.8 2.1 3.1 0.2 6 0.7 8.7 1.4 1.4-0.4 2.8-0.6 4.3-0.7 0.5 0 0.8-0.8 1.4-1l0.1-1c0.6 0.9 0.5-0.3 0.1-0.9 0.7 0.6 0.9 1.1 1.2 1.5 0-0.3 0.8-1.4 0.8-0.1l0.2-1.3c0.3-0.2 0.4 1.1 0.7 0.2 0.3-0.9 0.9-0.2 1.5-0.5-0.2 0.4-0.1 1.2 0.6 0.7l0.8-0.7c0.5 1.2 1.3 0.7 1.7 0.5 4.4-2.8 8.8-6.1 13-9.4l-0.1 1.3 0.5-1.6c0.5 0.5 0.9 0.1 1.1-0.2 0.6-1 1.4-2 2.7-2.9-1.6 4.3-3.5 7.7-5.9 10.5l-1 1.2c0 0.7-0.2 1.6-1 1.7-0.4 0.1-1.2-0.2-1.8 0.4-0.3 0.4 0.7 1.2-0.1 0.6-0.7-0.5-1.4 0-2.2 0.2-0.6 0.2 0.4 0.8 0.6 1.2 0.2 0.4 0.4 0.8 0.3 1.3l-1.1-1.2c-1.3 0.7-2.1 2-3.2 3-0.5 0.4-0.3 1.1-0.3 1.7-0.7 0-1.5-0.2-1.9 0.2-0.3 0.4-0.2 1-0.2 1.6-1-0.1-1.1-1.6-2-1.3-0.9 0.2-1.9 0.3-2.7 0.8 0.6 1.2-1 0.5-0.8 0.7-1.5-0.9-2.8-1.6-4.4-1-3.4-1.1-7.6-0.6-10.7-0.2 0-0.5 0.1-1-0.1-1.1-0.2 0.5-0.8 0.3-0.7 0.3-1.9-1.3-3.8-2.1-5.8-3.2-1.8 0.2-3.5-0.7-4-1.2-1.4-1.3-3-0.6-4.3-0.9-2.8-0.7-3.8-3.6-4.1-5.6-0.2-1-1-1.4-1.3-1.3-1.3-4.2-3.3-8-4.9-11.9-0.4-1-0.3-2-0.3-3.1 0.5 0.2 1 0.1 0.9-0.6-0.5-3.3-1.7-5.8-3-8.2 0.7-3.4 0.8-7.4 2.4-10.4 1.4-2.7 4-4.1 5.8-6.4 0.6-0.8 0.6-1.9 1.2-2.6 2-2 4-4.1 6.2-5.9 1-0.8 2.2 0 3.7-0.3 0.5-1.8 2.5-3.4 4.4-2.9 0.8 0.2 2.4-1.9 2.9-2.1 0.8-0.3 0.4 0.8 0.4 1.5 1.9-1.5 4.5-2.3 6.9-3.2" fill="black" fill-rule="nonzero" stroke="none" stroke-width="1" stroke-linecap="butt" stroke-linejoin="miter" stroke-miterlimit="10" stroke-dasharray="" stroke-dashoffset="0" font-family="none" font-weight="none" font-size="none" text-anchor="none" style="mix-blend-mode: normal"></path></g><g transform="matrix(1,0,0,1,64,135.03921601329273)"><svg viewBox="0 0 192 89.92156797341457" height="89.92156797341457" width="192"><g><svg viewBox="0 0 192 89.92156797341457" height="89.92156797341457" width="192"><g><svg viewBox="0 0 192 89.92156797341457" height="89.92156797341457" width="192"><g transform="matrix(1,0,0,1,0,54.35025808695653)"><svg viewBox="0 0 192 35.571309886458046" height="35.571309886458046" width="192"><g id="SvgjsG2347"><svg viewBox="0 0 192 35.571309886458046" height="35.571309886458046" width="192" id="SvgjsSvg2346"><g><svg viewBox="0 0 192 35.571309886458046" height="35.571309886458046" width="192"><g transform="matrix(1,0,0,1,0,0)"><svg width="192" viewBox="2.9 -32.05 180.54 33.449999999999996" height="35.571309886458046" data-palette-color="url(#02d95e34-24a1-4afb-bd8e-98aec6e08d5e)"><path d="M8.6 0Q7.05 0 5.25 0.25 3.45 0.5 2.9 0.6L2.9 0.6 3.2-1.7Q5.5-2.15 6.3-3.03 7.1-3.9 7.1-6L7.1-6 7.15-27Q7.15-28.6 6.78-29.15 6.4-29.7 5.3-29.7L5.3-29.7Q4.8-29.7 4.3-29.65 3.8-29.6 3.6-29.6L3.6-29.6 3.5-29.8 3.85-32Q4.45-31.95 6.1-31.9 7.75-31.85 9.4-31.85L9.4-31.85Q11.1-31.85 12.88-31.93 14.65-32 15.3-32.05L15.3-32.05Q20.05-32.05 22.6-30.08 25.15-28.1 25.15-24.45L25.15-24.45Q25.15-21.95 23.63-19.95 22.1-17.95 19.35-16.75L19.35-16.75Q23-15.95 25.05-13.95 27.1-11.95 27.1-9.15L27.1-9.15Q27.1-6.6 25.48-4.38 23.85-2.15 21.15-0.83 18.45 0.5 15.35 0.5L15.35 0.5Q14 0.5 12.25 0.25L12.25 0.25Q9.4 0 8.6 0L8.6 0ZM10.95-17.55Q11.7-17.5 13.48-17.35 15.25-17.2 16.4-17.15L16.4-17.15Q16.4-17 17.7-17.68 19-18.35 20.05-19.78 21.1-21.2 21.1-23.6L21.1-23.6Q21.1-26.8 18.95-28.35 16.8-29.9 12.3-29.9L12.3-29.9Q11.8-29.9 11.63-29.68 11.45-29.45 11.4-28.75L11.4-28.75Q11.1-23.95 10.95-17.55L10.95-17.55ZM10.85-14.9L10.65-5.55Q10.65-3.65 11.95-2.85 13.25-2.05 16.35-2.05L16.35-2.05Q19.35-2.05 21.08-3.73 22.8-5.4 22.8-8.25L22.8-8.25Q22.8-10.95 21.1-12.68 19.4-14.4 16.05-15L16.05-15 10.85-14.9ZM51.4 0.6Q50.3 0.6 49.15-0.38 48-1.35 47.05-3.05L47.05-3.05 42.85-10.4 39.6-10.4 39.5-5.05Q39.5-3.6 39.7-2.98 39.9-2.35 40.47-2.15 41.05-1.95 42.45-1.9L42.45-1.9 42.55-1.75 42.15 0.15Q41.55 0.1 39.97 0.08 38.4 0.05 36.8 0.05L36.8 0.05Q35.25 0.05 34.1 0.1 32.95 0.15 32.55 0.2L32.55 0.2 32.9-1.85Q34.75-2.1 35.35-2.7 35.95-3.3 35.95-4.95L35.95-4.95 36-20.9Q36-22.1 35.7-22.53 35.4-22.95 34.55-22.95L34.55-22.95 33.15-22.9 33-23.1 33.3-25Q33.8-25 35.2-24.95 36.6-24.9 38-24.9L38-24.9Q39.45-24.9 41.1-24.98 42.75-25.05 43.35-25.05L43.35-25.05Q47.4-25.05 49.7-23.38 52-21.7 52-18.75L52-18.75Q52-16.45 50.45-14.5 48.9-12.55 46.1-11.3L46.1-11.3 50.35-4.9Q51.55-3.1 52.65-2.35 53.75-1.6 55.3-1.6L55.3-1.6 55.5-1.35 55.25 0.2 51.4 0.6ZM43.75-12.6Q44.7-13 45.42-13.38 46.15-13.75 47.05-14.95 47.95-16.15 47.95-18.05L47.95-18.05Q47.95-22.9 40.8-22.9L40.8-22.9Q40.4-22.9 40.25-22.73 40.1-22.55 40.1-22L40.1-22Q39.7-15.9 39.7-13L39.7-13 43.75-12.6ZM58.95 0.45L59.2-1.6Q61.09-1.95 61.75-2.63 62.4-3.3 62.4-4.95L62.4-4.95 62.45-20.85Q62.45-22.1 62.15-22.53 61.84-22.95 60.95-22.95L60.95-22.95 59.3-22.9 59.2-23.1 59.45-25Q59.75-25 61.07-24.95 62.4-24.9 64.55-24.9L64.55-24.9Q65.7-24.9 67.37-25.05 69.05-25.2 69.55-25.25L69.55-25.25 69.34-23.2Q67.7-23 67.15-22.58 66.59-22.15 66.5-21L66.5-21Q66.3-17 66.12-12.15 65.95-7.3 65.95-4.65L65.95-4.65Q65.95-3.05 66.3-2.5 66.65-1.95 67.7-1.95L67.7-1.95Q68.4-1.95 68.97-2 69.55-2.05 69.75-2.1L69.75-2.1 69.84-1.9 69.5 0.1Q68.9 0.1 67.25 0.05 65.59 0 63.95 0L63.95 0Q62.59 0 61.02 0.18 59.45 0.35 58.95 0.45L58.95 0.45ZM85.94 0.35L85.79 0.1 85.94-1.7Q88.04-1.85 88.77-2.15 89.49-2.45 89.49-3.15L89.49-3.15Q89.49-3.95 89.14-4.85L89.14-4.85 87.94-8.7Q86.94-8.75 83.79-8.75L83.79-8.75Q82.34-8.75 79.49-8.45L79.49-8.45 78.09-4.75Q77.74-3.6 77.74-3.35L77.74-3.35Q77.74-2.55 78.29-2.2 78.84-1.85 80.09-1.85L80.09-1.85 82.24-1.85 82.39-1.65 82.09 0.25Q81.59 0.2 79.82 0.1 78.04 0 76.34 0L76.34 0Q74.74 0 73.47 0.05 72.19 0.1 71.74 0.1L71.74 0.1 72.04-1.95Q73.14-2.1 73.79-2.73 74.44-3.35 75.09-4.85L75.09-4.85 82.94-24.7 86.49-25.35 86.84-25.3Q86.84-25.1 89.12-17.4 91.39-9.7 93.19-4.65L93.19-4.65Q93.69-3.2 94.47-2.63 95.24-2.05 96.94-1.9L96.94-1.9 97.04-1.7 96.79 0.1Q96.29 0.1 94.94 0.05 93.59 0 92.24 0L92.24 0Q90.19 0 88.34 0.15 86.49 0.3 85.94 0.35L85.94 0.35ZM80.29-10.8L83.69-10.8Q85.44-10.8 87.34-11L87.34-11 84.29-20.7 83.94-20.7 80.29-10.8ZM120.34-6.8L120.29-21.25Q120.29-22.9 118.94-22.9L118.94-22.9 117.44-22.9 117.34-23.1 117.69-25.05Q118.14-25 119.39-24.95 120.64-24.9 121.94-24.9L121.94-24.9Q123.04-24.9 124.42-25.03 125.79-25.15 126.19-25.2L126.19-25.2 125.99-23.15Q124.54-22.95 123.92-22.38 123.29-21.8 123.24-20.65L123.24-20.65 122.64 0.85 120.69 1.4Q115.94-5.55 111.09-12.2 106.24-18.85 106.24-18.75L106.24-18.75 105.99-18.75 105.84-3.6Q105.84-2.65 106.14-2.3 106.44-1.95 107.14-1.95L107.14-1.95 109.14-2 109.29-1.85 108.89 0.15Q108.44 0.1 107.12 0.05 105.79 0 104.34 0L104.34 0Q103.19 0 101.89 0.13 100.59 0.25 100.19 0.3L100.19 0.3 100.44-1.75Q101.69-1.9 102.29-2.48 102.89-3.05 102.94-4.2L102.94-4.2 103.49-20.7Q103.49-21.95 102.77-22.43 102.04-22.9 99.99-23.15L99.99-23.15 99.79-23.4 100.14-25.1Q100.54-25.05 101.67-24.98 102.79-24.9 103.94-24.9L103.94-24.9Q105.04-24.9 105.89-24.95 106.74-25 106.99-25.05L106.99-25.05Q111.04-19.1 115.57-12.9 120.09-6.7 120.09-6.8L120.09-6.8 120.34-6.8ZM151.04-6.8L150.99-21.25Q150.99-22.9 149.64-22.9L149.64-22.9 148.14-22.9 148.04-23.1 148.39-25.05Q148.84-25 150.09-24.95 151.34-24.9 152.64-24.9L152.64-24.9Q153.74-24.9 155.11-25.03 156.49-25.15 156.89-25.2L156.89-25.2 156.69-23.15Q155.24-22.95 154.61-22.38 153.99-21.8 153.94-20.65L153.94-20.65 153.34 0.85 151.39 1.4Q146.64-5.55 141.79-12.2 136.94-18.85 136.94-18.75L136.94-18.75 136.69-18.75 136.54-3.6Q136.54-2.65 136.84-2.3 137.14-1.95 137.84-1.95L137.84-1.95 139.84-2 139.99-1.85 139.59 0.15Q139.14 0.1 137.81 0.05 136.49 0 135.04 0L135.04 0Q133.89 0 132.59 0.13 131.29 0.25 130.89 0.3L130.89 0.3 131.14-1.75Q132.39-1.9 132.99-2.48 133.59-3.05 133.64-4.2L133.64-4.2 134.19-20.7Q134.19-21.95 133.46-22.43 132.74-22.9 130.69-23.15L130.69-23.15 130.49-23.4 130.84-25.1Q131.24-25.05 132.36-24.98 133.49-24.9 134.64-24.9L134.64-24.9Q135.74-24.9 136.59-24.95 137.44-25 137.69-25.05L137.69-25.05Q141.74-19.1 146.26-12.9 150.79-6.7 150.79-6.8L150.79-6.8 151.04-6.8ZM172.34 0.35L172.19 0.1 172.34-1.7Q174.44-1.85 175.16-2.15 175.89-2.45 175.89-3.15L175.89-3.15Q175.89-3.95 175.54-4.85L175.54-4.85 174.34-8.7Q173.34-8.75 170.19-8.75L170.19-8.75Q168.74-8.75 165.89-8.45L165.89-8.45 164.49-4.75Q164.14-3.6 164.14-3.35L164.14-3.35Q164.14-2.55 164.69-2.2 165.24-1.85 166.49-1.85L166.49-1.85 168.64-1.85 168.79-1.65 168.49 0.25Q167.99 0.2 166.21 0.1 164.44 0 162.74 0L162.74 0Q161.14 0 159.86 0.05 158.59 0.1 158.14 0.1L158.14 0.1 158.44-1.95Q159.54-2.1 160.19-2.73 160.84-3.35 161.49-4.85L161.49-4.85 169.34-24.7 172.89-25.35 173.24-25.3Q173.24-25.1 175.51-17.4 177.79-9.7 179.59-4.65L179.59-4.65Q180.09-3.2 180.86-2.63 181.64-2.05 183.34-1.9L183.34-1.9 183.44-1.7 183.19 0.1Q182.69 0.1 181.34 0.05 179.99 0 178.64 0L178.64 0Q176.59 0 174.74 0.15 172.89 0.3 172.34 0.35L172.34 0.35ZM166.69-10.8L170.09-10.8Q171.84-10.8 173.74-11L173.74-11 170.69-20.7 170.34-20.7 166.69-10.8Z" opacity="1" transform="matrix(1,0,0,1,0,0)" fill="white" class="wordmark-text-0" id="SvgjsPath2345"></path></svg></g></svg></g></svg></g></svg></g><g transform="matrix(1,0,0,1,79.72746700972,0)"><svg viewBox="0 0 32.54506598055999 49.15955026308502" height="49.15955026308502" width="32.54506598055999"><g><svg xmlns="http://www.w3.org/2000/svg" xmlns:xlink="http://www.w3.org/1999/xlink" version="1.1" x="0" y="0" viewBox="24.761855407245655 5 59.58264309935908 90" enable-background="new 0 0 100 100" xml:space="preserve" width="32.54506598055999" height="49.15955026308502" class="icon-icon-0" data-fill-palette-color="accent" id="SvgjsSvg2344"><g fill="black"><path d="M73.76 35.603C86.875 48 91.5 66.25 65.633 82.379c3.64-4.928 5.654-9.794 6.096-14.669 0.951-10.516-5.606-19.072-12.835-26.752C48.298 29.7 47.51 18.84 56.413 6.782 54.578 22.641 64.6 26.944 73.76 35.603zM45.288 93.716c6.184-13.053 7.276-20.302-8.197-34.939-4.204-3.977-7.451-8.029-9.71-12.086-2.881 6.435-5.164 20.081 3.244 27.935C36.312 79.938 44.125 83.125 45.288 93.716zM56.709 43.014C48.183 33.954 41.999 21.253 54 5 21.497 17.692 19.625 38.125 39.151 56.597 55.603 72.158 54.75 80.75 48 95 79.875 71.5 68.709 55.764 56.709 43.014z" fill="black"></path></g></svg></g></svg></g><g></g></svg></g></svg></g></svg></g></svg></g><defs><mask></mask></defs></svg><rect width="320" height="360" fill="black" stroke="none" visibility="hidden"></rect></g></mask><linearGradient x1="0.054" x2="0.941" y1="0.5" y2="0.5" id="02d95e34-24a1-4afb-bd8e-98aec6e08d5e"><stop stop-color="#9c7945" offset="0"></stop><stop stop-color="#faf3aa" offset="0.498"></stop><stop stop-color="#9c7945" offset="1"></stop></linearGradient><rect width="320.000047" height="360" fill="url(#02d95e34-24a1-4afb-bd8e-98aec6e08d5e)" mask="url(#29d54e48-5136-4b98-9104-598c03cc5b13)" data-fill-palette-color="primary"></rect><mask id="2ec091d0-1c6d-4380-88b8-1fa3ad51783a"><g id="SvgjsG2367"><svg viewBox="0 0 320 360" height="360" width="320"><g><svg></svg></g><g><svg viewBox="0 0 320 360" height="360" width="320"><g><path transform="translate(-74.99272,-51.79039) scale(4.65793,4.65793)" d="M20.6 59.9l0.8 1-0.4-1.3c-0.1-0.6-0.8 0.1-0.4 0.3M21.5 59.3c0.3 0.5 0.6 1 0.6 1.5 0 0.7 0.6 1 1.1 1.2-0.7-0.8-1.1-3-1.7-2.7M59.9 16.9c1.7 0 3.3-0.2 5.1 0.2 4.4 1.1 8.1 3.3 10.6 6.4l7 11.2c0.3 2.8 0.9 5.9 0.8 9.3 0.7 0 0.6-1 1.4-1.2-0.8 2-1.2 4.5-1.4 7.4-0.5-1.6 0-4 0.1-5.3-0.7 1.1-1.1 0.3-1.1-0.2 0.1-0.8-0.3-0.7-0.6-1-1.1-1-1.8-2.1-2.6-3.8 0.5-1.3 0.6-3.2-1-4.2-0.5-0.3-1.1-0.8-1.4-1.6-0.4-1.1-1.1-2.4-0.9-4.1 0.1-0.5-1.5 1.1-2.4 0.4-3.9-2.7-7.8-5.8-12.5-8.4-2.5 0-4.3-0.9-5.2-2-0.8-1-0.2-2.3 1-2.4 0.7 0 1.5-0.2 2.1 0.2 0.1-0.4 0.5-0.9 1-0.9M50 14.6l0.2 0.1c1 0.2 1.5 1.6 2.6 1.1 0 0.7 0.1 1.4-0.1 1.9-0.3 0.8-1.2 0.8-1.9 0.8-6.7-0.4-10.6 2.4-14.7 4.8-1.1 0.7-2.3 1.2-3.2 2.1-4.3 4-9 7.7-10.1 15.1l-0.9 8.2c-0.1 0.9-1.1 1.8-0.9 2.9l0.7 4.9c-0.7-0.7-1.1 0.2-0.9 0.6 0.1 0.3 0.5 1.3 1.1 0.4 0.8 1.5 1.6 4.4 2.7 5.7 3.4 4 7.8 7.6 11.4 11.2 0.9-0.2 1.6-0.2 1.8-0.8 0.3 0.6-0.3 1.2-0.8 1.3 1.6 1 3.4 1.9 5.8 2.1 3.1 0.2 6 0.7 8.7 1.4 1.4-0.4 2.8-0.6 4.3-0.7 0.5 0 0.8-0.8 1.4-1l0.1-1c0.6 0.9 0.5-0.3 0.1-0.9 0.7 0.6 0.9 1.1 1.2 1.5 0-0.3 0.8-1.4 0.8-0.1l0.2-1.3c0.3-0.2 0.4 1.1 0.7 0.2 0.3-0.9 0.9-0.2 1.5-0.5-0.2 0.4-0.1 1.2 0.6 0.7l0.8-0.7c0.5 1.2 1.3 0.7 1.7 0.5 4.4-2.8 8.8-6.1 13-9.4l-0.1 1.3 0.5-1.6c0.5 0.5 0.9 0.1 1.1-0.2 0.6-1 1.4-2 2.7-2.9-1.6 4.3-3.5 7.7-5.9 10.5l-1 1.2c0 0.7-0.2 1.6-1 1.7-0.4 0.1-1.2-0.2-1.8 0.4-0.3 0.4 0.7 1.2-0.1 0.6-0.7-0.5-1.4 0-2.2 0.2-0.6 0.2 0.4 0.8 0.6 1.2 0.2 0.4 0.4 0.8 0.3 1.3l-1.1-1.2c-1.3 0.7-2.1 2-3.2 3-0.5 0.4-0.3 1.1-0.3 1.7-0.7 0-1.5-0.2-1.9 0.2-0.3 0.4-0.2 1-0.2 1.6-1-0.1-1.1-1.6-2-1.3-0.9 0.2-1.9 0.3-2.7 0.8 0.6 1.2-1 0.5-0.8 0.7-1.5-0.9-2.8-1.6-4.4-1-3.4-1.1-7.6-0.6-10.7-0.2 0-0.5 0.1-1-0.1-1.1-0.2 0.5-0.8 0.3-0.7 0.3-1.9-1.3-3.8-2.1-5.8-3.2-1.8 0.2-3.5-0.7-4-1.2-1.4-1.3-3-0.6-4.3-0.9-2.8-0.7-3.8-3.6-4.1-5.6-0.2-1-1-1.4-1.3-1.3-1.3-4.2-3.3-8-4.9-11.9-0.4-1-0.3-2-0.3-3.1 0.5 0.2 1 0.1 0.9-0.6-0.5-3.3-1.7-5.8-3-8.2 0.7-3.4 0.8-7.4 2.4-10.4 1.4-2.7 4-4.1 5.8-6.4 0.6-0.8 0.6-1.9 1.2-2.6 2-2 4-4.1 6.2-5.9 1-0.8 2.2 0 3.7-0.3 0.5-1.8 2.5-3.4 4.4-2.9 0.8 0.2 2.4-1.9 2.9-2.1 0.8-0.3 0.4 0.8 0.4 1.5 1.9-1.5 4.5-2.3 6.9-3.2" fill="black" fill-rule="nonzero" stroke="none" stroke-width="1" stroke-linecap="butt" stroke-linejoin="miter" stroke-miterlimit="10" stroke-dasharray="" stroke-dashoffset="0" font-family="none" font-weight="none" font-size="none" text-anchor="none" style="mix-blend-mode: normal"></path></g><g transform="matrix(1,0,0,1,64,135.03921601329273)"><svg viewBox="0 0 192 89.92156797341457" height="89.92156797341457" width="192"><g><svg viewBox="0 0 192 89.92156797341457" height="89.92156797341457" width="192"><g><svg viewBox="0 0 192 89.92156797341457" height="89.92156797341457" width="192"><g transform="matrix(1,0,0,1,0,54.35025808695653)"><svg viewBox="0 0 192 35.571309886458046" height="35.571309886458046" width="192"><g id="SvgjsG2366"><svg viewBox="0 0 192 35.571309886458046" height="35.571309886458046" width="192" id="SvgjsSvg2365"><g><svg viewBox="0 0 192 35.571309886458046" height="35.571309886458046" width="192"><g transform="matrix(1,0,0,1,0,0)"><svg width="192" viewBox="2.9 -32.05 180.54 33.449999999999996" height="35.571309886458046" data-palette-color="url(#02d95e34-24a1-4afb-bd8e-98aec6e08d5e)"></svg></g></svg></g></svg></g></svg></g><g transform="matrix(1,0,0,1,79.72746700972,0)"><svg viewBox="0 0 32.54506598055999 49.15955026308502" height="49.15955026308502" width="32.54506598055999"><g><svg xmlns="http://www.w3.org/2000/svg" xmlns:xlink="http://www.w3.org/1999/xlink" version="1.1" x="0" y="0" viewBox="24.761855407245655 5 59.58264309935908 90" enable-background="new 0 0 100 100" xml:space="preserve" width="32.54506598055999" height="49.15955026308502" class="icon-icon-0" data-fill-palette-color="accent" id="SvgjsSvg2364"><g fill="white"><path d="M73.76 35.603C86.875 48 91.5 66.25 65.633 82.379c3.64-4.928 5.654-9.794 6.096-14.669 0.951-10.516-5.606-19.072-12.835-26.752C48.298 29.7 47.51 18.84 56.413 6.782 54.578 22.641 64.6 26.944 73.76 35.603zM45.288 93.716c6.184-13.053 7.276-20.302-8.197-34.939-4.204-3.977-7.451-8.029-9.71-12.086-2.881 6.435-5.164 20.081 3.244 27.935C36.312 79.938 44.125 83.125 45.288 93.716zM56.709 43.014C48.183 33.954 41.999 21.253 54 5 21.497 17.692 19.625 38.125 39.151 56.597 55.603 72.158 54.75 80.75 48 95 79.875 71.5 68.709 55.764 56.709 43.014z" fill="white"></path></g></svg></g></svg></g><g></g></svg></g></svg></g></svg></g></svg></g><defs><mask></mask></defs><mask><g id="SvgjsG2363"><svg viewBox="0 0 320 360" height="360" width="320"><g><svg></svg></g><g><svg viewBox="0 0 320 360" height="360" width="320"><g><path transform="translate(-74.99272,-51.79039) scale(4.65793,4.65793)" d="M20.6 59.9l0.8 1-0.4-1.3c-0.1-0.6-0.8 0.1-0.4 0.3M21.5 59.3c0.3 0.5 0.6 1 0.6 1.5 0 0.7 0.6 1 1.1 1.2-0.7-0.8-1.1-3-1.7-2.7M59.9 16.9c1.7 0 3.3-0.2 5.1 0.2 4.4 1.1 8.1 3.3 10.6 6.4l7 11.2c0.3 2.8 0.9 5.9 0.8 9.3 0.7 0 0.6-1 1.4-1.2-0.8 2-1.2 4.5-1.4 7.4-0.5-1.6 0-4 0.1-5.3-0.7 1.1-1.1 0.3-1.1-0.2 0.1-0.8-0.3-0.7-0.6-1-1.1-1-1.8-2.1-2.6-3.8 0.5-1.3 0.6-3.2-1-4.2-0.5-0.3-1.1-0.8-1.4-1.6-0.4-1.1-1.1-2.4-0.9-4.1 0.1-0.5-1.5 1.1-2.4 0.4-3.9-2.7-7.8-5.8-12.5-8.4-2.5 0-4.3-0.9-5.2-2-0.8-1-0.2-2.3 1-2.4 0.7 0 1.5-0.2 2.1 0.2 0.1-0.4 0.5-0.9 1-0.9M50 14.6l0.2 0.1c1 0.2 1.5 1.6 2.6 1.1 0 0.7 0.1 1.4-0.1 1.9-0.3 0.8-1.2 0.8-1.9 0.8-6.7-0.4-10.6 2.4-14.7 4.8-1.1 0.7-2.3 1.2-3.2 2.1-4.3 4-9 7.7-10.1 15.1l-0.9 8.2c-0.1 0.9-1.1 1.8-0.9 2.9l0.7 4.9c-0.7-0.7-1.1 0.2-0.9 0.6 0.1 0.3 0.5 1.3 1.1 0.4 0.8 1.5 1.6 4.4 2.7 5.7 3.4 4 7.8 7.6 11.4 11.2 0.9-0.2 1.6-0.2 1.8-0.8 0.3 0.6-0.3 1.2-0.8 1.3 1.6 1 3.4 1.9 5.8 2.1 3.1 0.2 6 0.7 8.7 1.4 1.4-0.4 2.8-0.6 4.3-0.7 0.5 0 0.8-0.8 1.4-1l0.1-1c0.6 0.9 0.5-0.3 0.1-0.9 0.7 0.6 0.9 1.1 1.2 1.5 0-0.3 0.8-1.4 0.8-0.1l0.2-1.3c0.3-0.2 0.4 1.1 0.7 0.2 0.3-0.9 0.9-0.2 1.5-0.5-0.2 0.4-0.1 1.2 0.6 0.7l0.8-0.7c0.5 1.2 1.3 0.7 1.7 0.5 4.4-2.8 8.8-6.1 13-9.4l-0.1 1.3 0.5-1.6c0.5 0.5 0.9 0.1 1.1-0.2 0.6-1 1.4-2 2.7-2.9-1.6 4.3-3.5 7.7-5.9 10.5l-1 1.2c0 0.7-0.2 1.6-1 1.7-0.4 0.1-1.2-0.2-1.8 0.4-0.3 0.4 0.7 1.2-0.1 0.6-0.7-0.5-1.4 0-2.2 0.2-0.6 0.2 0.4 0.8 0.6 1.2 0.2 0.4 0.4 0.8 0.3 1.3l-1.1-1.2c-1.3 0.7-2.1 2-3.2 3-0.5 0.4-0.3 1.1-0.3 1.7-0.7 0-1.5-0.2-1.9 0.2-0.3 0.4-0.2 1-0.2 1.6-1-0.1-1.1-1.6-2-1.3-0.9 0.2-1.9 0.3-2.7 0.8 0.6 1.2-1 0.5-0.8 0.7-1.5-0.9-2.8-1.6-4.4-1-3.4-1.1-7.6-0.6-10.7-0.2 0-0.5 0.1-1-0.1-1.1-0.2 0.5-0.8 0.3-0.7 0.3-1.9-1.3-3.8-2.1-5.8-3.2-1.8 0.2-3.5-0.7-4-1.2-1.4-1.3-3-0.6-4.3-0.9-2.8-0.7-3.8-3.6-4.1-5.6-0.2-1-1-1.4-1.3-1.3-1.3-4.2-3.3-8-4.9-11.9-0.4-1-0.3-2-0.3-3.1 0.5 0.2 1 0.1 0.9-0.6-0.5-3.3-1.7-5.8-3-8.2 0.7-3.4 0.8-7.4 2.4-10.4 1.4-2.7 4-4.1 5.8-6.4 0.6-0.8 0.6-1.9 1.2-2.6 2-2 4-4.1 6.2-5.9 1-0.8 2.2 0 3.7-0.3 0.5-1.8 2.5-3.4 4.4-2.9 0.8 0.2 2.4-1.9 2.9-2.1 0.8-0.3 0.4 0.8 0.4 1.5 1.9-1.5 4.5-2.3 6.9-3.2" fill="black" fill-rule="nonzero" stroke="none" stroke-width="1" stroke-linecap="butt" stroke-linejoin="miter" stroke-miterlimit="10" stroke-dasharray="" stroke-dashoffset="0" font-family="none" font-weight="none" font-size="none" text-anchor="none" style="mix-blend-mode: normal"></path></g><g transform="matrix(1,0,0,1,64,135.03921601329273)"><svg viewBox="0 0 192 89.92156797341457" height="89.92156797341457" width="192"><g><svg viewBox="0 0 192 89.92156797341457" height="89.92156797341457" width="192"><g><svg viewBox="0 0 192 89.92156797341457" height="89.92156797341457" width="192"><g transform="matrix(1,0,0,1,0,54.35025808695653)"><svg viewBox="0 0 192 35.571309886458046" height="35.571309886458046" width="192"><g id="SvgjsG2362"><svg viewBox="0 0 192 35.571309886458046" height="35.571309886458046" width="192" id="SvgjsSvg2361"><g><svg viewBox="0 0 192 35.571309886458046" height="35.571309886458046" width="192"><g transform="matrix(1,0,0,1,0,0)"><svg width="192" viewBox="2.9 -32.05 180.54 33.449999999999996" height="35.571309886458046" data-palette-color="url(#02d95e34-24a1-4afb-bd8e-98aec6e08d5e)"><path d="M8.6 0Q7.05 0 5.25 0.25 3.45 0.5 2.9 0.6L2.9 0.6 3.2-1.7Q5.5-2.15 6.3-3.03 7.1-3.9 7.1-6L7.1-6 7.15-27Q7.15-28.6 6.78-29.15 6.4-29.7 5.3-29.7L5.3-29.7Q4.8-29.7 4.3-29.65 3.8-29.6 3.6-29.6L3.6-29.6 3.5-29.8 3.85-32Q4.45-31.95 6.1-31.9 7.75-31.85 9.4-31.85L9.4-31.85Q11.1-31.85 12.88-31.93 14.65-32 15.3-32.05L15.3-32.05Q20.05-32.05 22.6-30.08 25.15-28.1 25.15-24.45L25.15-24.45Q25.15-21.95 23.63-19.95 22.1-17.95 19.35-16.75L19.35-16.75Q23-15.95 25.05-13.95 27.1-11.95 27.1-9.15L27.1-9.15Q27.1-6.6 25.48-4.38 23.85-2.15 21.15-0.83 18.45 0.5 15.35 0.5L15.35 0.5Q14 0.5 12.25 0.25L12.25 0.25Q9.4 0 8.6 0L8.6 0ZM10.95-17.55Q11.7-17.5 13.48-17.35 15.25-17.2 16.4-17.15L16.4-17.15Q16.4-17 17.7-17.68 19-18.35 20.05-19.78 21.1-21.2 21.1-23.6L21.1-23.6Q21.1-26.8 18.95-28.35 16.8-29.9 12.3-29.9L12.3-29.9Q11.8-29.9 11.63-29.68 11.45-29.45 11.4-28.75L11.4-28.75Q11.1-23.95 10.95-17.55L10.95-17.55ZM10.85-14.9L10.65-5.55Q10.65-3.65 11.95-2.85 13.25-2.05 16.35-2.05L16.35-2.05Q19.35-2.05 21.08-3.73 22.8-5.4 22.8-8.25L22.8-8.25Q22.8-10.95 21.1-12.68 19.4-14.4 16.05-15L16.05-15 10.85-14.9ZM51.4 0.6Q50.3 0.6 49.15-0.38 48-1.35 47.05-3.05L47.05-3.05 42.85-10.4 39.6-10.4 39.5-5.05Q39.5-3.6 39.7-2.98 39.9-2.35 40.47-2.15 41.05-1.95 42.45-1.9L42.45-1.9 42.55-1.75 42.15 0.15Q41.55 0.1 39.97 0.08 38.4 0.05 36.8 0.05L36.8 0.05Q35.25 0.05 34.1 0.1 32.95 0.15 32.55 0.2L32.55 0.2 32.9-1.85Q34.75-2.1 35.35-2.7 35.95-3.3 35.95-4.95L35.95-4.95 36-20.9Q36-22.1 35.7-22.53 35.4-22.95 34.55-22.95L34.55-22.95 33.15-22.9 33-23.1 33.3-25Q33.8-25 35.2-24.95 36.6-24.9 38-24.9L38-24.9Q39.45-24.9 41.1-24.98 42.75-25.05 43.35-25.05L43.35-25.05Q47.4-25.05 49.7-23.38 52-21.7 52-18.75L52-18.75Q52-16.45 50.45-14.5 48.9-12.55 46.1-11.3L46.1-11.3 50.35-4.9Q51.55-3.1 52.65-2.35 53.75-1.6 55.3-1.6L55.3-1.6 55.5-1.35 55.25 0.2 51.4 0.6ZM43.75-12.6Q44.7-13 45.42-13.38 46.15-13.75 47.05-14.95 47.95-16.15 47.95-18.05L47.95-18.05Q47.95-22.9 40.8-22.9L40.8-22.9Q40.4-22.9 40.25-22.73 40.1-22.55 40.1-22L40.1-22Q39.7-15.9 39.7-13L39.7-13 43.75-12.6ZM58.95 0.45L59.2-1.6Q61.09-1.95 61.75-2.63 62.4-3.3 62.4-4.95L62.4-4.95 62.45-20.85Q62.45-22.1 62.15-22.53 61.84-22.95 60.95-22.95L60.95-22.95 59.3-22.9 59.2-23.1 59.45-25Q59.75-25 61.07-24.95 62.4-24.9 64.55-24.9L64.55-24.9Q65.7-24.9 67.37-25.05 69.05-25.2 69.55-25.25L69.55-25.25 69.34-23.2Q67.7-23 67.15-22.58 66.59-22.15 66.5-21L66.5-21Q66.3-17 66.12-12.15 65.95-7.3 65.95-4.65L65.95-4.65Q65.95-3.05 66.3-2.5 66.65-1.95 67.7-1.95L67.7-1.95Q68.4-1.95 68.97-2 69.55-2.05 69.75-2.1L69.75-2.1 69.84-1.9 69.5 0.1Q68.9 0.1 67.25 0.05 65.59 0 63.95 0L63.95 0Q62.59 0 61.02 0.18 59.45 0.35 58.95 0.45L58.95 0.45ZM85.94 0.35L85.79 0.1 85.94-1.7Q88.04-1.85 88.77-2.15 89.49-2.45 89.49-3.15L89.49-3.15Q89.49-3.95 89.14-4.85L89.14-4.85 87.94-8.7Q86.94-8.75 83.79-8.75L83.79-8.75Q82.34-8.75 79.49-8.45L79.49-8.45 78.09-4.75Q77.74-3.6 77.74-3.35L77.74-3.35Q77.74-2.55 78.29-2.2 78.84-1.85 80.09-1.85L80.09-1.85 82.24-1.85 82.39-1.65 82.09 0.25Q81.59 0.2 79.82 0.1 78.04 0 76.34 0L76.34 0Q74.74 0 73.47 0.05 72.19 0.1 71.74 0.1L71.74 0.1 72.04-1.95Q73.14-2.1 73.79-2.73 74.44-3.35 75.09-4.85L75.09-4.85 82.94-24.7 86.49-25.35 86.84-25.3Q86.84-25.1 89.12-17.4 91.39-9.7 93.19-4.65L93.19-4.65Q93.69-3.2 94.47-2.63 95.24-2.05 96.94-1.9L96.94-1.9 97.04-1.7 96.79 0.1Q96.29 0.1 94.94 0.05 93.59 0 92.24 0L92.24 0Q90.19 0 88.34 0.15 86.49 0.3 85.94 0.35L85.94 0.35ZM80.29-10.8L83.69-10.8Q85.44-10.8 87.34-11L87.34-11 84.29-20.7 83.94-20.7 80.29-10.8ZM120.34-6.8L120.29-21.25Q120.29-22.9 118.94-22.9L118.94-22.9 117.44-22.9 117.34-23.1 117.69-25.05Q118.14-25 119.39-24.95 120.64-24.9 121.94-24.9L121.94-24.9Q123.04-24.9 124.42-25.03 125.79-25.15 126.19-25.2L126.19-25.2 125.99-23.15Q124.54-22.95 123.92-22.38 123.29-21.8 123.24-20.65L123.24-20.65 122.64 0.85 120.69 1.4Q115.94-5.55 111.09-12.2 106.24-18.85 106.24-18.75L106.24-18.75 105.99-18.75 105.84-3.6Q105.84-2.65 106.14-2.3 106.44-1.95 107.14-1.95L107.14-1.95 109.14-2 109.29-1.85 108.89 0.15Q108.44 0.1 107.12 0.05 105.79 0 104.34 0L104.34 0Q103.19 0 101.89 0.13 100.59 0.25 100.19 0.3L100.19 0.3 100.44-1.75Q101.69-1.9 102.29-2.48 102.89-3.05 102.94-4.2L102.94-4.2 103.49-20.7Q103.49-21.95 102.77-22.43 102.04-22.9 99.99-23.15L99.99-23.15 99.79-23.4 100.14-25.1Q100.54-25.05 101.67-24.98 102.79-24.9 103.94-24.9L103.94-24.9Q105.04-24.9 105.89-24.95 106.74-25 106.99-25.05L106.99-25.05Q111.04-19.1 115.57-12.9 120.09-6.7 120.09-6.8L120.09-6.8 120.34-6.8ZM151.04-6.8L150.99-21.25Q150.99-22.9 149.64-22.9L149.64-22.9 148.14-22.9 148.04-23.1 148.39-25.05Q148.84-25 150.09-24.95 151.34-24.9 152.64-24.9L152.64-24.9Q153.74-24.9 155.11-25.03 156.49-25.15 156.89-25.2L156.89-25.2 156.69-23.15Q155.24-22.95 154.61-22.38 153.99-21.8 153.94-20.65L153.94-20.65 153.34 0.85 151.39 1.4Q146.64-5.55 141.79-12.2 136.94-18.85 136.94-18.75L136.94-18.75 136.69-18.75 136.54-3.6Q136.54-2.65 136.84-2.3 137.14-1.95 137.84-1.95L137.84-1.95 139.84-2 139.99-1.85 139.59 0.15Q139.14 0.1 137.81 0.05 136.49 0 135.04 0L135.04 0Q133.89 0 132.59 0.13 131.29 0.25 130.89 0.3L130.89 0.3 131.14-1.75Q132.39-1.9 132.99-2.48 133.59-3.05 133.64-4.2L133.64-4.2 134.19-20.7Q134.19-21.95 133.46-22.43 132.74-22.9 130.69-23.15L130.69-23.15 130.49-23.4 130.84-25.1Q131.24-25.05 132.36-24.98 133.49-24.9 134.64-24.9L134.64-24.9Q135.74-24.9 136.59-24.95 137.44-25 137.69-25.05L137.69-25.05Q141.74-19.1 146.26-12.9 150.79-6.7 150.79-6.8L150.79-6.8 151.04-6.8ZM172.34 0.35L172.19 0.1 172.34-1.7Q174.44-1.85 175.16-2.15 175.89-2.45 175.89-3.15L175.89-3.15Q175.89-3.95 175.54-4.85L175.54-4.85 174.34-8.7Q173.34-8.75 170.19-8.75L170.19-8.75Q168.74-8.75 165.89-8.45L165.89-8.45 164.49-4.75Q164.14-3.6 164.14-3.35L164.14-3.35Q164.14-2.55 164.69-2.2 165.24-1.85 166.49-1.85L166.49-1.85 168.64-1.85 168.79-1.65 168.49 0.25Q167.99 0.2 166.21 0.1 164.44 0 162.74 0L162.74 0Q161.14 0 159.86 0.05 158.59 0.1 158.14 0.1L158.14 0.1 158.44-1.95Q159.54-2.1 160.19-2.73 160.84-3.35 161.49-4.85L161.49-4.85 169.34-24.7 172.89-25.35 173.24-25.3Q173.24-25.1 175.51-17.4 177.79-9.7 179.59-4.65L179.59-4.65Q180.09-3.2 180.86-2.63 181.64-2.05 183.34-1.9L183.34-1.9 183.44-1.7 183.19 0.1Q182.69 0.1 181.34 0.05 179.99 0 178.64 0L178.64 0Q176.59 0 174.74 0.15 172.89 0.3 172.34 0.35L172.34 0.35ZM166.69-10.8L170.09-10.8Q171.84-10.8 173.74-11L173.74-11 170.69-20.7 170.34-20.7 166.69-10.8Z" opacity="1" transform="matrix(1,0,0,1,0,0)" fill="black" class="wordmark-text-0" id="SvgjsPath2360"></path></svg></g></svg></g></svg></g></svg></g><g transform="matrix(1,0,0,1,79.72746700972,0)"><svg viewBox="0 0 32.54506598055999 49.15955026308502" height="49.15955026308502" width="32.54506598055999"><g><svg xmlns="http://www.w3.org/2000/svg" xmlns:xlink="http://www.w3.org/1999/xlink" version="1.1" x="0" y="0" viewBox="24.761855407245655 5 59.58264309935908 90" enable-background="new 0 0 100 100" xml:space="preserve" width="32.54506598055999" height="49.15955026308502" class="icon-icon-0" data-fill-palette-color="accent" id="SvgjsSvg2359"><g fill="black"><path d="M73.76 35.603C86.875 48 91.5 66.25 65.633 82.379c3.64-4.928 5.654-9.794 6.096-14.669 0.951-10.516-5.606-19.072-12.835-26.752C48.298 29.7 47.51 18.84 56.413 6.782 54.578 22.641 64.6 26.944 73.76 35.603zM45.288 93.716c6.184-13.053 7.276-20.302-8.197-34.939-4.204-3.977-7.451-8.029-9.71-12.086-2.881 6.435-5.164 20.081 3.244 27.935C36.312 79.938 44.125 83.125 45.288 93.716zM56.709 43.014C48.183 33.954 41.999 21.253 54 5 21.497 17.692 19.625 38.125 39.151 56.597 55.603 72.158 54.75 80.75 48 95 79.875 71.5 68.709 55.764 56.709 43.014z" fill="black"></path></g></svg></g></svg></g><g></g></svg></g></svg></g></svg></g></svg></g><defs><mask></mask></defs></svg><rect width="320" height="360" fill="black" stroke="none" visibility="hidden"></rect></g></mask></svg><rect width="320" height="360" fill="black" stroke="none" visibility="hidden"></rect></g></mask><linearGradient x1="0.054" x2="0.941" y1="0.5" y2="0.5" id="e6f3b603-5f96-4956-ac7e-cc1e2a9ed276"><stop stop-color="#9c7945" offset="0"></stop><stop stop-color="#faf3aa" offset="0.498"></stop><stop stop-color="#9c7945" offset="1"></stop></linearGradient><rect width="320.000094" height="360" fill="url(#e6f3b603-5f96-4956-ac7e-cc1e2a9ed276)" mask="url(#2ec091d0-1c6d-4380-88b8-1fa3ad51783a)" data-fill-palette-color="accent"></rect><mask id="e23a60c0-7418-4864-aee7-76fbb2b45227"><g id="SvgjsG2385"><svg viewBox="0 0 320 360" height="360" width="320"><g><svg></svg></g><g><svg viewBox="0 0 320 360" height="360" width="320"><g><path transform="translate(-74.99272,-51.79039) scale(4.65793,4.65793)" d="M20.6 59.9l0.8 1-0.4-1.3c-0.1-0.6-0.8 0.1-0.4 0.3M21.5 59.3c0.3 0.5 0.6 1 0.6 1.5 0 0.7 0.6 1 1.1 1.2-0.7-0.8-1.1-3-1.7-2.7M59.9 16.9c1.7 0 3.3-0.2 5.1 0.2 4.4 1.1 8.1 3.3 10.6 6.4l7 11.2c0.3 2.8 0.9 5.9 0.8 9.3 0.7 0 0.6-1 1.4-1.2-0.8 2-1.2 4.5-1.4 7.4-0.5-1.6 0-4 0.1-5.3-0.7 1.1-1.1 0.3-1.1-0.2 0.1-0.8-0.3-0.7-0.6-1-1.1-1-1.8-2.1-2.6-3.8 0.5-1.3 0.6-3.2-1-4.2-0.5-0.3-1.1-0.8-1.4-1.6-0.4-1.1-1.1-2.4-0.9-4.1 0.1-0.5-1.5 1.1-2.4 0.4-3.9-2.7-7.8-5.8-12.5-8.4-2.5 0-4.3-0.9-5.2-2-0.8-1-0.2-2.3 1-2.4 0.7 0 1.5-0.2 2.1 0.2 0.1-0.4 0.5-0.9 1-0.9M50 14.6l0.2 0.1c1 0.2 1.5 1.6 2.6 1.1 0 0.7 0.1 1.4-0.1 1.9-0.3 0.8-1.2 0.8-1.9 0.8-6.7-0.4-10.6 2.4-14.7 4.8-1.1 0.7-2.3 1.2-3.2 2.1-4.3 4-9 7.7-10.1 15.1l-0.9 8.2c-0.1 0.9-1.1 1.8-0.9 2.9l0.7 4.9c-0.7-0.7-1.1 0.2-0.9 0.6 0.1 0.3 0.5 1.3 1.1 0.4 0.8 1.5 1.6 4.4 2.7 5.7 3.4 4 7.8 7.6 11.4 11.2 0.9-0.2 1.6-0.2 1.8-0.8 0.3 0.6-0.3 1.2-0.8 1.3 1.6 1 3.4 1.9 5.8 2.1 3.1 0.2 6 0.7 8.7 1.4 1.4-0.4 2.8-0.6 4.3-0.7 0.5 0 0.8-0.8 1.4-1l0.1-1c0.6 0.9 0.5-0.3 0.1-0.9 0.7 0.6 0.9 1.1 1.2 1.5 0-0.3 0.8-1.4 0.8-0.1l0.2-1.3c0.3-0.2 0.4 1.1 0.7 0.2 0.3-0.9 0.9-0.2 1.5-0.5-0.2 0.4-0.1 1.2 0.6 0.7l0.8-0.7c0.5 1.2 1.3 0.7 1.7 0.5 4.4-2.8 8.8-6.1 13-9.4l-0.1 1.3 0.5-1.6c0.5 0.5 0.9 0.1 1.1-0.2 0.6-1 1.4-2 2.7-2.9-1.6 4.3-3.5 7.7-5.9 10.5l-1 1.2c0 0.7-0.2 1.6-1 1.7-0.4 0.1-1.2-0.2-1.8 0.4-0.3 0.4 0.7 1.2-0.1 0.6-0.7-0.5-1.4 0-2.2 0.2-0.6 0.2 0.4 0.8 0.6 1.2 0.2 0.4 0.4 0.8 0.3 1.3l-1.1-1.2c-1.3 0.7-2.1 2-3.2 3-0.5 0.4-0.3 1.1-0.3 1.7-0.7 0-1.5-0.2-1.9 0.2-0.3 0.4-0.2 1-0.2 1.6-1-0.1-1.1-1.6-2-1.3-0.9 0.2-1.9 0.3-2.7 0.8 0.6 1.2-1 0.5-0.8 0.7-1.5-0.9-2.8-1.6-4.4-1-3.4-1.1-7.6-0.6-10.7-0.2 0-0.5 0.1-1-0.1-1.1-0.2 0.5-0.8 0.3-0.7 0.3-1.9-1.3-3.8-2.1-5.8-3.2-1.8 0.2-3.5-0.7-4-1.2-1.4-1.3-3-0.6-4.3-0.9-2.8-0.7-3.8-3.6-4.1-5.6-0.2-1-1-1.4-1.3-1.3-1.3-4.2-3.3-8-4.9-11.9-0.4-1-0.3-2-0.3-3.1 0.5 0.2 1 0.1 0.9-0.6-0.5-3.3-1.7-5.8-3-8.2 0.7-3.4 0.8-7.4 2.4-10.4 1.4-2.7 4-4.1 5.8-6.4 0.6-0.8 0.6-1.9 1.2-2.6 2-2 4-4.1 6.2-5.9 1-0.8 2.2 0 3.7-0.3 0.5-1.8 2.5-3.4 4.4-2.9 0.8 0.2 2.4-1.9 2.9-2.1 0.8-0.3 0.4 0.8 0.4 1.5 1.9-1.5 4.5-2.3 6.9-3.2" fill="white" fill-rule="nonzero" stroke="none" stroke-width="1" stroke-linecap="butt" stroke-linejoin="miter" stroke-miterlimit="10" stroke-dasharray="" stroke-dashoffset="0" font-family="none" font-weight="none" font-size="none" text-anchor="none" style="mix-blend-mode: normal"></path></g><g transform="matrix(1,0,0,1,64,135.03921601329273)"><svg viewBox="0 0 192 89.92156797341457" height="89.92156797341457" width="192"><g><svg viewBox="0 0 192 89.92156797341457" height="89.92156797341457" width="192"><g><svg viewBox="0 0 192 89.92156797341457" height="89.92156797341457" width="192"><g transform="matrix(1,0,0,1,0,54.35025808695653)"><svg viewBox="0 0 192 35.571309886458046" height="35.571309886458046" width="192"><g id="SvgjsG2384"><svg viewBox="0 0 192 35.571309886458046" height="35.571309886458046" width="192" id="SvgjsSvg2383"><g><svg viewBox="0 0 192 35.571309886458046" height="35.571309886458046" width="192"><g transform="matrix(1,0,0,1,0,0)"><svg width="192" viewBox="2.9 -32.05 180.54 33.449999999999996" height="35.571309886458046" data-palette-color="url(#02d95e34-24a1-4afb-bd8e-98aec6e08d5e)"></svg></g></svg></g></svg></g></svg></g><g transform="matrix(1,0,0,1,79.72746700972,0)"><svg viewBox="0 0 32.54506598055999 49.15955026308502" height="49.15955026308502" width="32.54506598055999"><g><svg xmlns="http://www.w3.org/2000/svg" xmlns:xlink="http://www.w3.org/1999/xlink" version="1.1" x="0" y="0" viewBox="24.761855407245655 5 59.58264309935908 90" enable-background="new 0 0 100 100" xml:space="preserve" width="32.54506598055999" height="49.15955026308502" class="icon-icon-0" data-fill-palette-color="accent" id="SvgjsSvg2382"></svg></g></svg></g><g></g></svg></g></svg></g></svg></g></svg></g><defs><mask></mask></defs><mask><g id="SvgjsG2381"><svg viewBox="0 0 320 360" height="360" width="320"><g><svg></svg></g><g><svg viewBox="0 0 320 360" height="360" width="320"><g><path transform="translate(-74.99272,-51.79039) scale(4.65793,4.65793)" d="M20.6 59.9l0.8 1-0.4-1.3c-0.1-0.6-0.8 0.1-0.4 0.3M21.5 59.3c0.3 0.5 0.6 1 0.6 1.5 0 0.7 0.6 1 1.1 1.2-0.7-0.8-1.1-3-1.7-2.7M59.9 16.9c1.7 0 3.3-0.2 5.1 0.2 4.4 1.1 8.1 3.3 10.6 6.4l7 11.2c0.3 2.8 0.9 5.9 0.8 9.3 0.7 0 0.6-1 1.4-1.2-0.8 2-1.2 4.5-1.4 7.4-0.5-1.6 0-4 0.1-5.3-0.7 1.1-1.1 0.3-1.1-0.2 0.1-0.8-0.3-0.7-0.6-1-1.1-1-1.8-2.1-2.6-3.8 0.5-1.3 0.6-3.2-1-4.2-0.5-0.3-1.1-0.8-1.4-1.6-0.4-1.1-1.1-2.4-0.9-4.1 0.1-0.5-1.5 1.1-2.4 0.4-3.9-2.7-7.8-5.8-12.5-8.4-2.5 0-4.3-0.9-5.2-2-0.8-1-0.2-2.3 1-2.4 0.7 0 1.5-0.2 2.1 0.2 0.1-0.4 0.5-0.9 1-0.9M50 14.6l0.2 0.1c1 0.2 1.5 1.6 2.6 1.1 0 0.7 0.1 1.4-0.1 1.9-0.3 0.8-1.2 0.8-1.9 0.8-6.7-0.4-10.6 2.4-14.7 4.8-1.1 0.7-2.3 1.2-3.2 2.1-4.3 4-9 7.7-10.1 15.1l-0.9 8.2c-0.1 0.9-1.1 1.8-0.9 2.9l0.7 4.9c-0.7-0.7-1.1 0.2-0.9 0.6 0.1 0.3 0.5 1.3 1.1 0.4 0.8 1.5 1.6 4.4 2.7 5.7 3.4 4 7.8 7.6 11.4 11.2 0.9-0.2 1.6-0.2 1.8-0.8 0.3 0.6-0.3 1.2-0.8 1.3 1.6 1 3.4 1.9 5.8 2.1 3.1 0.2 6 0.7 8.7 1.4 1.4-0.4 2.8-0.6 4.3-0.7 0.5 0 0.8-0.8 1.4-1l0.1-1c0.6 0.9 0.5-0.3 0.1-0.9 0.7 0.6 0.9 1.1 1.2 1.5 0-0.3 0.8-1.4 0.8-0.1l0.2-1.3c0.3-0.2 0.4 1.1 0.7 0.2 0.3-0.9 0.9-0.2 1.5-0.5-0.2 0.4-0.1 1.2 0.6 0.7l0.8-0.7c0.5 1.2 1.3 0.7 1.7 0.5 4.4-2.8 8.8-6.1 13-9.4l-0.1 1.3 0.5-1.6c0.5 0.5 0.9 0.1 1.1-0.2 0.6-1 1.4-2 2.7-2.9-1.6 4.3-3.5 7.7-5.9 10.5l-1 1.2c0 0.7-0.2 1.6-1 1.7-0.4 0.1-1.2-0.2-1.8 0.4-0.3 0.4 0.7 1.2-0.1 0.6-0.7-0.5-1.4 0-2.2 0.2-0.6 0.2 0.4 0.8 0.6 1.2 0.2 0.4 0.4 0.8 0.3 1.3l-1.1-1.2c-1.3 0.7-2.1 2-3.2 3-0.5 0.4-0.3 1.1-0.3 1.7-0.7 0-1.5-0.2-1.9 0.2-0.3 0.4-0.2 1-0.2 1.6-1-0.1-1.1-1.6-2-1.3-0.9 0.2-1.9 0.3-2.7 0.8 0.6 1.2-1 0.5-0.8 0.7-1.5-0.9-2.8-1.6-4.4-1-3.4-1.1-7.6-0.6-10.7-0.2 0-0.5 0.1-1-0.1-1.1-0.2 0.5-0.8 0.3-0.7 0.3-1.9-1.3-3.8-2.1-5.8-3.2-1.8 0.2-3.5-0.7-4-1.2-1.4-1.3-3-0.6-4.3-0.9-2.8-0.7-3.8-3.6-4.1-5.6-0.2-1-1-1.4-1.3-1.3-1.3-4.2-3.3-8-4.9-11.9-0.4-1-0.3-2-0.3-3.1 0.5 0.2 1 0.1 0.9-0.6-0.5-3.3-1.7-5.8-3-8.2 0.7-3.4 0.8-7.4 2.4-10.4 1.4-2.7 4-4.1 5.8-6.4 0.6-0.8 0.6-1.9 1.2-2.6 2-2 4-4.1 6.2-5.9 1-0.8 2.2 0 3.7-0.3 0.5-1.8 2.5-3.4 4.4-2.9 0.8 0.2 2.4-1.9 2.9-2.1 0.8-0.3 0.4 0.8 0.4 1.5 1.9-1.5 4.5-2.3 6.9-3.2" fill="black" fill-rule="nonzero" stroke="none" stroke-width="1" stroke-linecap="butt" stroke-linejoin="miter" stroke-miterlimit="10" stroke-dasharray="" stroke-dashoffset="0" font-family="none" font-weight="none" font-size="none" text-anchor="none" style="mix-blend-mode: normal"></path></g><g transform="matrix(1,0,0,1,64,135.03921601329273)"><svg viewBox="0 0 192 89.92156797341457" height="89.92156797341457" width="192"><g><svg viewBox="0 0 192 89.92156797341457" height="89.92156797341457" width="192"><g><svg viewBox="0 0 192 89.92156797341457" height="89.92156797341457" width="192"><g transform="matrix(1,0,0,1,0,54.35025808695653)"><svg viewBox="0 0 192 35.571309886458046" height="35.571309886458046" width="192"><g id="SvgjsG2380"><svg viewBox="0 0 192 35.571309886458046" height="35.571309886458046" width="192" id="SvgjsSvg2379"><g><svg viewBox="0 0 192 35.571309886458046" height="35.571309886458046" width="192"><g transform="matrix(1,0,0,1,0,0)"><svg width="192" viewBox="2.9 -32.05 180.54 33.449999999999996" height="35.571309886458046" data-palette-color="url(#02d95e34-24a1-4afb-bd8e-98aec6e08d5e)"><path d="M8.6 0Q7.05 0 5.25 0.25 3.45 0.5 2.9 0.6L2.9 0.6 3.2-1.7Q5.5-2.15 6.3-3.03 7.1-3.9 7.1-6L7.1-6 7.15-27Q7.15-28.6 6.78-29.15 6.4-29.7 5.3-29.7L5.3-29.7Q4.8-29.7 4.3-29.65 3.8-29.6 3.6-29.6L3.6-29.6 3.5-29.8 3.85-32Q4.45-31.95 6.1-31.9 7.75-31.85 9.4-31.85L9.4-31.85Q11.1-31.85 12.88-31.93 14.65-32 15.3-32.05L15.3-32.05Q20.05-32.05 22.6-30.08 25.15-28.1 25.15-24.45L25.15-24.45Q25.15-21.95 23.63-19.95 22.1-17.95 19.35-16.75L19.35-16.75Q23-15.95 25.05-13.95 27.1-11.95 27.1-9.15L27.1-9.15Q27.1-6.6 25.48-4.38 23.85-2.15 21.15-0.83 18.45 0.5 15.35 0.5L15.35 0.5Q14 0.5 12.25 0.25L12.25 0.25Q9.4 0 8.6 0L8.6 0ZM10.95-17.55Q11.7-17.5 13.48-17.35 15.25-17.2 16.4-17.15L16.4-17.15Q16.4-17 17.7-17.68 19-18.35 20.05-19.78 21.1-21.2 21.1-23.6L21.1-23.6Q21.1-26.8 18.95-28.35 16.8-29.9 12.3-29.9L12.3-29.9Q11.8-29.9 11.63-29.68 11.45-29.45 11.4-28.75L11.4-28.75Q11.1-23.95 10.95-17.55L10.95-17.55ZM10.85-14.9L10.65-5.55Q10.65-3.65 11.95-2.85 13.25-2.05 16.35-2.05L16.35-2.05Q19.35-2.05 21.08-3.73 22.8-5.4 22.8-8.25L22.8-8.25Q22.8-10.95 21.1-12.68 19.4-14.4 16.05-15L16.05-15 10.85-14.9ZM51.4 0.6Q50.3 0.6 49.15-0.38 48-1.35 47.05-3.05L47.05-3.05 42.85-10.4 39.6-10.4 39.5-5.05Q39.5-3.6 39.7-2.98 39.9-2.35 40.47-2.15 41.05-1.95 42.45-1.9L42.45-1.9 42.55-1.75 42.15 0.15Q41.55 0.1 39.97 0.08 38.4 0.05 36.8 0.05L36.8 0.05Q35.25 0.05 34.1 0.1 32.95 0.15 32.55 0.2L32.55 0.2 32.9-1.85Q34.75-2.1 35.35-2.7 35.95-3.3 35.95-4.95L35.95-4.95 36-20.9Q36-22.1 35.7-22.53 35.4-22.95 34.55-22.95L34.55-22.95 33.15-22.9 33-23.1 33.3-25Q33.8-25 35.2-24.95 36.6-24.9 38-24.9L38-24.9Q39.45-24.9 41.1-24.98 42.75-25.05 43.35-25.05L43.35-25.05Q47.4-25.05 49.7-23.38 52-21.7 52-18.75L52-18.75Q52-16.45 50.45-14.5 48.9-12.55 46.1-11.3L46.1-11.3 50.35-4.9Q51.55-3.1 52.65-2.35 53.75-1.6 55.3-1.6L55.3-1.6 55.5-1.35 55.25 0.2 51.4 0.6ZM43.75-12.6Q44.7-13 45.42-13.38 46.15-13.75 47.05-14.95 47.95-16.15 47.95-18.05L47.95-18.05Q47.95-22.9 40.8-22.9L40.8-22.9Q40.4-22.9 40.25-22.73 40.1-22.55 40.1-22L40.1-22Q39.7-15.9 39.7-13L39.7-13 43.75-12.6ZM58.95 0.45L59.2-1.6Q61.09-1.95 61.75-2.63 62.4-3.3 62.4-4.95L62.4-4.95 62.45-20.85Q62.45-22.1 62.15-22.53 61.84-22.95 60.95-22.95L60.95-22.95 59.3-22.9 59.2-23.1 59.45-25Q59.75-25 61.07-24.95 62.4-24.9 64.55-24.9L64.55-24.9Q65.7-24.9 67.37-25.05 69.05-25.2 69.55-25.25L69.55-25.25 69.34-23.2Q67.7-23 67.15-22.58 66.59-22.15 66.5-21L66.5-21Q66.3-17 66.12-12.15 65.95-7.3 65.95-4.65L65.95-4.65Q65.95-3.05 66.3-2.5 66.65-1.95 67.7-1.95L67.7-1.95Q68.4-1.95 68.97-2 69.55-2.05 69.75-2.1L69.75-2.1 69.84-1.9 69.5 0.1Q68.9 0.1 67.25 0.05 65.59 0 63.95 0L63.95 0Q62.59 0 61.02 0.18 59.45 0.35 58.95 0.45L58.95 0.45ZM85.94 0.35L85.79 0.1 85.94-1.7Q88.04-1.85 88.77-2.15 89.49-2.45 89.49-3.15L89.49-3.15Q89.49-3.95 89.14-4.85L89.14-4.85 87.94-8.7Q86.94-8.75 83.79-8.75L83.79-8.75Q82.34-8.75 79.49-8.45L79.49-8.45 78.09-4.75Q77.74-3.6 77.74-3.35L77.74-3.35Q77.74-2.55 78.29-2.2 78.84-1.85 80.09-1.85L80.09-1.85 82.24-1.85 82.39-1.65 82.09 0.25Q81.59 0.2 79.82 0.1 78.04 0 76.34 0L76.34 0Q74.74 0 73.47 0.05 72.19 0.1 71.74 0.1L71.74 0.1 72.04-1.95Q73.14-2.1 73.79-2.73 74.44-3.35 75.09-4.85L75.09-4.85 82.94-24.7 86.49-25.35 86.84-25.3Q86.84-25.1 89.12-17.4 91.39-9.7 93.19-4.65L93.19-4.65Q93.69-3.2 94.47-2.63 95.24-2.05 96.94-1.9L96.94-1.9 97.04-1.7 96.79 0.1Q96.29 0.1 94.94 0.05 93.59 0 92.24 0L92.24 0Q90.19 0 88.34 0.15 86.49 0.3 85.94 0.35L85.94 0.35ZM80.29-10.8L83.69-10.8Q85.44-10.8 87.34-11L87.34-11 84.29-20.7 83.94-20.7 80.29-10.8ZM120.34-6.8L120.29-21.25Q120.29-22.9 118.94-22.9L118.94-22.9 117.44-22.9 117.34-23.1 117.69-25.05Q118.14-25 119.39-24.95 120.64-24.9 121.94-24.9L121.94-24.9Q123.04-24.9 124.42-25.03 125.79-25.15 126.19-25.2L126.19-25.2 125.99-23.15Q124.54-22.95 123.92-22.38 123.29-21.8 123.24-20.65L123.24-20.65 122.64 0.85 120.69 1.4Q115.94-5.55 111.09-12.2 106.24-18.85 106.24-18.75L106.24-18.75 105.99-18.75 105.84-3.6Q105.84-2.65 106.14-2.3 106.44-1.95 107.14-1.95L107.14-1.95 109.14-2 109.29-1.85 108.89 0.15Q108.44 0.1 107.12 0.05 105.79 0 104.34 0L104.34 0Q103.19 0 101.89 0.13 100.59 0.25 100.19 0.3L100.19 0.3 100.44-1.75Q101.69-1.9 102.29-2.48 102.89-3.05 102.94-4.2L102.94-4.2 103.49-20.7Q103.49-21.95 102.77-22.43 102.04-22.9 99.99-23.15L99.99-23.15 99.79-23.4 100.14-25.1Q100.54-25.05 101.67-24.98 102.79-24.9 103.94-24.9L103.94-24.9Q105.04-24.9 105.89-24.95 106.74-25 106.99-25.05L106.99-25.05Q111.04-19.1 115.57-12.9 120.09-6.7 120.09-6.8L120.09-6.8 120.34-6.8ZM151.04-6.8L150.99-21.25Q150.99-22.9 149.64-22.9L149.64-22.9 148.14-22.9 148.04-23.1 148.39-25.05Q148.84-25 150.09-24.95 151.34-24.9 152.64-24.9L152.64-24.9Q153.74-24.9 155.11-25.03 156.49-25.15 156.89-25.2L156.89-25.2 156.69-23.15Q155.24-22.95 154.61-22.38 153.99-21.8 153.94-20.65L153.94-20.65 153.34 0.85 151.39 1.4Q146.64-5.55 141.79-12.2 136.94-18.85 136.94-18.75L136.94-18.75 136.69-18.75 136.54-3.6Q136.54-2.65 136.84-2.3 137.14-1.95 137.84-1.95L137.84-1.95 139.84-2 139.99-1.85 139.59 0.15Q139.14 0.1 137.81 0.05 136.49 0 135.04 0L135.04 0Q133.89 0 132.59 0.13 131.29 0.25 130.89 0.3L130.89 0.3 131.14-1.75Q132.39-1.9 132.99-2.48 133.59-3.05 133.64-4.2L133.64-4.2 134.19-20.7Q134.19-21.95 133.46-22.43 132.74-22.9 130.69-23.15L130.69-23.15 130.49-23.4 130.84-25.1Q131.24-25.05 132.36-24.98 133.49-24.9 134.64-24.9L134.64-24.9Q135.74-24.9 136.59-24.95 137.44-25 137.69-25.05L137.69-25.05Q141.74-19.1 146.26-12.9 150.79-6.7 150.79-6.8L150.79-6.8 151.04-6.8ZM172.34 0.35L172.19 0.1 172.34-1.7Q174.44-1.85 175.16-2.15 175.89-2.45 175.89-3.15L175.89-3.15Q175.89-3.95 175.54-4.85L175.54-4.85 174.34-8.7Q173.34-8.75 170.19-8.75L170.19-8.75Q168.74-8.75 165.89-8.45L165.89-8.45 164.49-4.75Q164.14-3.6 164.14-3.35L164.14-3.35Q164.14-2.55 164.69-2.2 165.24-1.85 166.49-1.85L166.49-1.85 168.64-1.85 168.79-1.65 168.49 0.25Q167.99 0.2 166.21 0.1 164.44 0 162.74 0L162.74 0Q161.14 0 159.86 0.05 158.59 0.1 158.14 0.1L158.14 0.1 158.44-1.95Q159.54-2.1 160.19-2.73 160.84-3.35 161.49-4.85L161.49-4.85 169.34-24.7 172.89-25.35 173.24-25.3Q173.24-25.1 175.51-17.4 177.79-9.7 179.59-4.65L179.59-4.65Q180.09-3.2 180.86-2.63 181.64-2.05 183.34-1.9L183.34-1.9 183.44-1.7 183.19 0.1Q182.69 0.1 181.34 0.05 179.99 0 178.64 0L178.64 0Q176.59 0 174.74 0.15 172.89 0.3 172.34 0.35L172.34 0.35ZM166.69-10.8L170.09-10.8Q171.84-10.8 173.74-11L173.74-11 170.69-20.7 170.34-20.7 166.69-10.8Z" opacity="1" transform="matrix(1,0,0,1,0,0)" fill="black" class="wordmark-text-0" id="SvgjsPath2378"></path></svg></g></svg></g></svg></g></svg></g><g transform="matrix(1,0,0,1,79.72746700972,0)"><svg viewBox="0 0 32.54506598055999 49.15955026308502" height="49.15955026308502" width="32.54506598055999"><g><svg xmlns="http://www.w3.org/2000/svg" xmlns:xlink="http://www.w3.org/1999/xlink" version="1.1" x="0" y="0" viewBox="24.761855407245655 5 59.58264309935908 90" enable-background="new 0 0 100 100" xml:space="preserve" width="32.54506598055999" height="49.15955026308502" class="icon-icon-0" data-fill-palette-color="accent" id="SvgjsSvg2377"><g fill="black"><path d="M73.76 35.603C86.875 48 91.5 66.25 65.633 82.379c3.64-4.928 5.654-9.794 6.096-14.669 0.951-10.516-5.606-19.072-12.835-26.752C48.298 29.7 47.51 18.84 56.413 6.782 54.578 22.641 64.6 26.944 73.76 35.603zM45.288 93.716c6.184-13.053 7.276-20.302-8.197-34.939-4.204-3.977-7.451-8.029-9.71-12.086-2.881 6.435-5.164 20.081 3.244 27.935C36.312 79.938 44.125 83.125 45.288 93.716zM56.709 43.014C48.183 33.954 41.999 21.253 54 5 21.497 17.692 19.625 38.125 39.151 56.597 55.603 72.158 54.75 80.75 48 95 79.875 71.5 68.709 55.764 56.709 43.014z" fill="black"></path></g></svg></g></svg></g><g></g></svg></g></svg></g></svg></g></svg></g><defs><mask></mask></defs></svg><rect width="320" height="360" fill="black" stroke="none" visibility="hidden"></rect></g></mask><mask><g id="SvgjsG2376"><svg viewBox="0 0 320 360" height="360" width="320"><g><svg></svg></g><g><svg viewBox="0 0 320 360" height="360" width="320"><g><path transform="translate(-74.99272,-51.79039) scale(4.65793,4.65793)" d="M20.6 59.9l0.8 1-0.4-1.3c-0.1-0.6-0.8 0.1-0.4 0.3M21.5 59.3c0.3 0.5 0.6 1 0.6 1.5 0 0.7 0.6 1 1.1 1.2-0.7-0.8-1.1-3-1.7-2.7M59.9 16.9c1.7 0 3.3-0.2 5.1 0.2 4.4 1.1 8.1 3.3 10.6 6.4l7 11.2c0.3 2.8 0.9 5.9 0.8 9.3 0.7 0 0.6-1 1.4-1.2-0.8 2-1.2 4.5-1.4 7.4-0.5-1.6 0-4 0.1-5.3-0.7 1.1-1.1 0.3-1.1-0.2 0.1-0.8-0.3-0.7-0.6-1-1.1-1-1.8-2.1-2.6-3.8 0.5-1.3 0.6-3.2-1-4.2-0.5-0.3-1.1-0.8-1.4-1.6-0.4-1.1-1.1-2.4-0.9-4.1 0.1-0.5-1.5 1.1-2.4 0.4-3.9-2.7-7.8-5.8-12.5-8.4-2.5 0-4.3-0.9-5.2-2-0.8-1-0.2-2.3 1-2.4 0.7 0 1.5-0.2 2.1 0.2 0.1-0.4 0.5-0.9 1-0.9M50 14.6l0.2 0.1c1 0.2 1.5 1.6 2.6 1.1 0 0.7 0.1 1.4-0.1 1.9-0.3 0.8-1.2 0.8-1.9 0.8-6.7-0.4-10.6 2.4-14.7 4.8-1.1 0.7-2.3 1.2-3.2 2.1-4.3 4-9 7.7-10.1 15.1l-0.9 8.2c-0.1 0.9-1.1 1.8-0.9 2.9l0.7 4.9c-0.7-0.7-1.1 0.2-0.9 0.6 0.1 0.3 0.5 1.3 1.1 0.4 0.8 1.5 1.6 4.4 2.7 5.7 3.4 4 7.8 7.6 11.4 11.2 0.9-0.2 1.6-0.2 1.8-0.8 0.3 0.6-0.3 1.2-0.8 1.3 1.6 1 3.4 1.9 5.8 2.1 3.1 0.2 6 0.7 8.7 1.4 1.4-0.4 2.8-0.6 4.3-0.7 0.5 0 0.8-0.8 1.4-1l0.1-1c0.6 0.9 0.5-0.3 0.1-0.9 0.7 0.6 0.9 1.1 1.2 1.5 0-0.3 0.8-1.4 0.8-0.1l0.2-1.3c0.3-0.2 0.4 1.1 0.7 0.2 0.3-0.9 0.9-0.2 1.5-0.5-0.2 0.4-0.1 1.2 0.6 0.7l0.8-0.7c0.5 1.2 1.3 0.7 1.7 0.5 4.4-2.8 8.8-6.1 13-9.4l-0.1 1.3 0.5-1.6c0.5 0.5 0.9 0.1 1.1-0.2 0.6-1 1.4-2 2.7-2.9-1.6 4.3-3.5 7.7-5.9 10.5l-1 1.2c0 0.7-0.2 1.6-1 1.7-0.4 0.1-1.2-0.2-1.8 0.4-0.3 0.4 0.7 1.2-0.1 0.6-0.7-0.5-1.4 0-2.2 0.2-0.6 0.2 0.4 0.8 0.6 1.2 0.2 0.4 0.4 0.8 0.3 1.3l-1.1-1.2c-1.3 0.7-2.1 2-3.2 3-0.5 0.4-0.3 1.1-0.3 1.7-0.7 0-1.5-0.2-1.9 0.2-0.3 0.4-0.2 1-0.2 1.6-1-0.1-1.1-1.6-2-1.3-0.9 0.2-1.9 0.3-2.7 0.8 0.6 1.2-1 0.5-0.8 0.7-1.5-0.9-2.8-1.6-4.4-1-3.4-1.1-7.6-0.6-10.7-0.2 0-0.5 0.1-1-0.1-1.1-0.2 0.5-0.8 0.3-0.7 0.3-1.9-1.3-3.8-2.1-5.8-3.2-1.8 0.2-3.5-0.7-4-1.2-1.4-1.3-3-0.6-4.3-0.9-2.8-0.7-3.8-3.6-4.1-5.6-0.2-1-1-1.4-1.3-1.3-1.3-4.2-3.3-8-4.9-11.9-0.4-1-0.3-2-0.3-3.1 0.5 0.2 1 0.1 0.9-0.6-0.5-3.3-1.7-5.8-3-8.2 0.7-3.4 0.8-7.4 2.4-10.4 1.4-2.7 4-4.1 5.8-6.4 0.6-0.8 0.6-1.9 1.2-2.6 2-2 4-4.1 6.2-5.9 1-0.8 2.2 0 3.7-0.3 0.5-1.8 2.5-3.4 4.4-2.9 0.8 0.2 2.4-1.9 2.9-2.1 0.8-0.3 0.4 0.8 0.4 1.5 1.9-1.5 4.5-2.3 6.9-3.2" fill="black" fill-rule="nonzero" stroke="none" stroke-width="1" stroke-linecap="butt" stroke-linejoin="miter" stroke-miterlimit="10" stroke-dasharray="" stroke-dashoffset="0" font-family="none" font-weight="none" font-size="none" text-anchor="none" style="mix-blend-mode: normal"></path></g><g transform="matrix(1,0,0,1,64,135.03921601329273)"><svg viewBox="0 0 192 89.92156797341457" height="89.92156797341457" width="192"><g><svg viewBox="0 0 192 89.92156797341457" height="89.92156797341457" width="192"><g><svg viewBox="0 0 192 89.92156797341457" height="89.92156797341457" width="192"><g transform="matrix(1,0,0,1,0,54.35025808695653)"><svg viewBox="0 0 192 35.571309886458046" height="35.571309886458046" width="192"><g id="SvgjsG2375"><svg viewBox="0 0 192 35.571309886458046" height="35.571309886458046" width="192" id="SvgjsSvg2374"><g><svg viewBox="0 0 192 35.571309886458046" height="35.571309886458046" width="192"><g transform="matrix(1,0,0,1,0,0)"><svg width="192" viewBox="2.9 -32.05 180.54 33.449999999999996" height="35.571309886458046" data-palette-color="url(#02d95e34-24a1-4afb-bd8e-98aec6e08d5e)"></svg></g></svg></g></svg></g></svg></g><g transform="matrix(1,0,0,1,79.72746700972,0)"><svg viewBox="0 0 32.54506598055999 49.15955026308502" height="49.15955026308502" width="32.54506598055999"><g><svg xmlns="http://www.w3.org/2000/svg" xmlns:xlink="http://www.w3.org/1999/xlink" version="1.1" x="0" y="0" viewBox="24.761855407245655 5 59.58264309935908 90" enable-background="new 0 0 100 100" xml:space="preserve" width="32.54506598055999" height="49.15955026308502" class="icon-icon-0" data-fill-palette-color="accent" id="SvgjsSvg2373"><g fill="black"><path d="M73.76 35.603C86.875 48 91.5 66.25 65.633 82.379c3.64-4.928 5.654-9.794 6.096-14.669 0.951-10.516-5.606-19.072-12.835-26.752C48.298 29.7 47.51 18.84 56.413 6.782 54.578 22.641 64.6 26.944 73.76 35.603zM45.288 93.716c6.184-13.053 7.276-20.302-8.197-34.939-4.204-3.977-7.451-8.029-9.71-12.086-2.881 6.435-5.164 20.081 3.244 27.935C36.312 79.938 44.125 83.125 45.288 93.716zM56.709 43.014C48.183 33.954 41.999 21.253 54 5 21.497 17.692 19.625 38.125 39.151 56.597 55.603 72.158 54.75 80.75 48 95 79.875 71.5 68.709 55.764 56.709 43.014z" fill="black"></path></g></svg></g></svg></g><g></g></svg></g></svg></g></svg></g></svg></g><defs><mask></mask></defs><mask><g id="SvgjsG2372"><svg viewBox="0 0 320 360" height="360" width="320"><g><svg></svg></g><g><svg viewBox="0 0 320 360" height="360" width="320"><g><path transform="translate(-74.99272,-51.79039) scale(4.65793,4.65793)" d="M20.6 59.9l0.8 1-0.4-1.3c-0.1-0.6-0.8 0.1-0.4 0.3M21.5 59.3c0.3 0.5 0.6 1 0.6 1.5 0 0.7 0.6 1 1.1 1.2-0.7-0.8-1.1-3-1.7-2.7M59.9 16.9c1.7 0 3.3-0.2 5.1 0.2 4.4 1.1 8.1 3.3 10.6 6.4l7 11.2c0.3 2.8 0.9 5.9 0.8 9.3 0.7 0 0.6-1 1.4-1.2-0.8 2-1.2 4.5-1.4 7.4-0.5-1.6 0-4 0.1-5.3-0.7 1.1-1.1 0.3-1.1-0.2 0.1-0.8-0.3-0.7-0.6-1-1.1-1-1.8-2.1-2.6-3.8 0.5-1.3 0.6-3.2-1-4.2-0.5-0.3-1.1-0.8-1.4-1.6-0.4-1.1-1.1-2.4-0.9-4.1 0.1-0.5-1.5 1.1-2.4 0.4-3.9-2.7-7.8-5.8-12.5-8.4-2.5 0-4.3-0.9-5.2-2-0.8-1-0.2-2.3 1-2.4 0.7 0 1.5-0.2 2.1 0.2 0.1-0.4 0.5-0.9 1-0.9M50 14.6l0.2 0.1c1 0.2 1.5 1.6 2.6 1.1 0 0.7 0.1 1.4-0.1 1.9-0.3 0.8-1.2 0.8-1.9 0.8-6.7-0.4-10.6 2.4-14.7 4.8-1.1 0.7-2.3 1.2-3.2 2.1-4.3 4-9 7.7-10.1 15.1l-0.9 8.2c-0.1 0.9-1.1 1.8-0.9 2.9l0.7 4.9c-0.7-0.7-1.1 0.2-0.9 0.6 0.1 0.3 0.5 1.3 1.1 0.4 0.8 1.5 1.6 4.4 2.7 5.7 3.4 4 7.8 7.6 11.4 11.2 0.9-0.2 1.6-0.2 1.8-0.8 0.3 0.6-0.3 1.2-0.8 1.3 1.6 1 3.4 1.9 5.8 2.1 3.1 0.2 6 0.7 8.7 1.4 1.4-0.4 2.8-0.6 4.3-0.7 0.5 0 0.8-0.8 1.4-1l0.1-1c0.6 0.9 0.5-0.3 0.1-0.9 0.7 0.6 0.9 1.1 1.2 1.5 0-0.3 0.8-1.4 0.8-0.1l0.2-1.3c0.3-0.2 0.4 1.1 0.7 0.2 0.3-0.9 0.9-0.2 1.5-0.5-0.2 0.4-0.1 1.2 0.6 0.7l0.8-0.7c0.5 1.2 1.3 0.7 1.7 0.5 4.4-2.8 8.8-6.1 13-9.4l-0.1 1.3 0.5-1.6c0.5 0.5 0.9 0.1 1.1-0.2 0.6-1 1.4-2 2.7-2.9-1.6 4.3-3.5 7.7-5.9 10.5l-1 1.2c0 0.7-0.2 1.6-1 1.7-0.4 0.1-1.2-0.2-1.8 0.4-0.3 0.4 0.7 1.2-0.1 0.6-0.7-0.5-1.4 0-2.2 0.2-0.6 0.2 0.4 0.8 0.6 1.2 0.2 0.4 0.4 0.8 0.3 1.3l-1.1-1.2c-1.3 0.7-2.1 2-3.2 3-0.5 0.4-0.3 1.1-0.3 1.7-0.7 0-1.5-0.2-1.9 0.2-0.3 0.4-0.2 1-0.2 1.6-1-0.1-1.1-1.6-2-1.3-0.9 0.2-1.9 0.3-2.7 0.8 0.6 1.2-1 0.5-0.8 0.7-1.5-0.9-2.8-1.6-4.4-1-3.4-1.1-7.6-0.6-10.7-0.2 0-0.5 0.1-1-0.1-1.1-0.2 0.5-0.8 0.3-0.7 0.3-1.9-1.3-3.8-2.1-5.8-3.2-1.8 0.2-3.5-0.7-4-1.2-1.4-1.3-3-0.6-4.3-0.9-2.8-0.7-3.8-3.6-4.1-5.6-0.2-1-1-1.4-1.3-1.3-1.3-4.2-3.3-8-4.9-11.9-0.4-1-0.3-2-0.3-3.1 0.5 0.2 1 0.1 0.9-0.6-0.5-3.3-1.7-5.8-3-8.2 0.7-3.4 0.8-7.4 2.4-10.4 1.4-2.7 4-4.1 5.8-6.4 0.6-0.8 0.6-1.9 1.2-2.6 2-2 4-4.1 6.2-5.9 1-0.8 2.2 0 3.7-0.3 0.5-1.8 2.5-3.4 4.4-2.9 0.8 0.2 2.4-1.9 2.9-2.1 0.8-0.3 0.4 0.8 0.4 1.5 1.9-1.5 4.5-2.3 6.9-3.2" fill="black" fill-rule="nonzero" stroke="none" stroke-width="1" stroke-linecap="butt" stroke-linejoin="miter" stroke-miterlimit="10" stroke-dasharray="" stroke-dashoffset="0" font-family="none" font-weight="none" font-size="none" text-anchor="none" style="mix-blend-mode: normal"></path></g><g transform="matrix(1,0,0,1,64,135.03921601329273)"><svg viewBox="0 0 192 89.92156797341457" height="89.92156797341457" width="192"><g><svg viewBox="0 0 192 89.92156797341457" height="89.92156797341457" width="192"><g><svg viewBox="0 0 192 89.92156797341457" height="89.92156797341457" width="192"><g transform="matrix(1,0,0,1,0,54.35025808695653)"><svg viewBox="0 0 192 35.571309886458046" height="35.571309886458046" width="192"><g id="SvgjsG2371"><svg viewBox="0 0 192 35.571309886458046" height="35.571309886458046" width="192" id="SvgjsSvg2370"><g><svg viewBox="0 0 192 35.571309886458046" height="35.571309886458046" width="192"><g transform="matrix(1,0,0,1,0,0)"><svg width="192" viewBox="2.9 -32.05 180.54 33.449999999999996" height="35.571309886458046" data-palette-color="url(#02d95e34-24a1-4afb-bd8e-98aec6e08d5e)"><path d="M8.6 0Q7.05 0 5.25 0.25 3.45 0.5 2.9 0.6L2.9 0.6 3.2-1.7Q5.5-2.15 6.3-3.03 7.1-3.9 7.1-6L7.1-6 7.15-27Q7.15-28.6 6.78-29.15 6.4-29.7 5.3-29.7L5.3-29.7Q4.8-29.7 4.3-29.65 3.8-29.6 3.6-29.6L3.6-29.6 3.5-29.8 3.85-32Q4.45-31.95 6.1-31.9 7.75-31.85 9.4-31.85L9.4-31.85Q11.1-31.85 12.88-31.93 14.65-32 15.3-32.05L15.3-32.05Q20.05-32.05 22.6-30.08 25.15-28.1 25.15-24.45L25.15-24.45Q25.15-21.95 23.63-19.95 22.1-17.95 19.35-16.75L19.35-16.75Q23-15.95 25.05-13.95 27.1-11.95 27.1-9.15L27.1-9.15Q27.1-6.6 25.48-4.38 23.85-2.15 21.15-0.83 18.45 0.5 15.35 0.5L15.35 0.5Q14 0.5 12.25 0.25L12.25 0.25Q9.4 0 8.6 0L8.6 0ZM10.95-17.55Q11.7-17.5 13.48-17.35 15.25-17.2 16.4-17.15L16.4-17.15Q16.4-17 17.7-17.68 19-18.35 20.05-19.78 21.1-21.2 21.1-23.6L21.1-23.6Q21.1-26.8 18.95-28.35 16.8-29.9 12.3-29.9L12.3-29.9Q11.8-29.9 11.63-29.68 11.45-29.45 11.4-28.75L11.4-28.75Q11.1-23.95 10.95-17.55L10.95-17.55ZM10.85-14.9L10.65-5.55Q10.65-3.65 11.95-2.85 13.25-2.05 16.35-2.05L16.35-2.05Q19.35-2.05 21.08-3.73 22.8-5.4 22.8-8.25L22.8-8.25Q22.8-10.95 21.1-12.68 19.4-14.4 16.05-15L16.05-15 10.85-14.9ZM51.4 0.6Q50.3 0.6 49.15-0.38 48-1.35 47.05-3.05L47.05-3.05 42.85-10.4 39.6-10.4 39.5-5.05Q39.5-3.6 39.7-2.98 39.9-2.35 40.47-2.15 41.05-1.95 42.45-1.9L42.45-1.9 42.55-1.75 42.15 0.15Q41.55 0.1 39.97 0.08 38.4 0.05 36.8 0.05L36.8 0.05Q35.25 0.05 34.1 0.1 32.95 0.15 32.55 0.2L32.55 0.2 32.9-1.85Q34.75-2.1 35.35-2.7 35.95-3.3 35.95-4.95L35.95-4.95 36-20.9Q36-22.1 35.7-22.53 35.4-22.95 34.55-22.95L34.55-22.95 33.15-22.9 33-23.1 33.3-25Q33.8-25 35.2-24.95 36.6-24.9 38-24.9L38-24.9Q39.45-24.9 41.1-24.98 42.75-25.05 43.35-25.05L43.35-25.05Q47.4-25.05 49.7-23.38 52-21.7 52-18.75L52-18.75Q52-16.45 50.45-14.5 48.9-12.55 46.1-11.3L46.1-11.3 50.35-4.9Q51.55-3.1 52.65-2.35 53.75-1.6 55.3-1.6L55.3-1.6 55.5-1.35 55.25 0.2 51.4 0.6ZM43.75-12.6Q44.7-13 45.42-13.38 46.15-13.75 47.05-14.95 47.95-16.15 47.95-18.05L47.95-18.05Q47.95-22.9 40.8-22.9L40.8-22.9Q40.4-22.9 40.25-22.73 40.1-22.55 40.1-22L40.1-22Q39.7-15.9 39.7-13L39.7-13 43.75-12.6ZM58.95 0.45L59.2-1.6Q61.09-1.95 61.75-2.63 62.4-3.3 62.4-4.95L62.4-4.95 62.45-20.85Q62.45-22.1 62.15-22.53 61.84-22.95 60.95-22.95L60.95-22.95 59.3-22.9 59.2-23.1 59.45-25Q59.75-25 61.07-24.95 62.4-24.9 64.55-24.9L64.55-24.9Q65.7-24.9 67.37-25.05 69.05-25.2 69.55-25.25L69.55-25.25 69.34-23.2Q67.7-23 67.15-22.58 66.59-22.15 66.5-21L66.5-21Q66.3-17 66.12-12.15 65.95-7.3 65.95-4.65L65.95-4.65Q65.95-3.05 66.3-2.5 66.65-1.95 67.7-1.95L67.7-1.95Q68.4-1.95 68.97-2 69.55-2.05 69.75-2.1L69.75-2.1 69.84-1.9 69.5 0.1Q68.9 0.1 67.25 0.05 65.59 0 63.95 0L63.95 0Q62.59 0 61.02 0.18 59.45 0.35 58.95 0.45L58.95 0.45ZM85.94 0.35L85.79 0.1 85.94-1.7Q88.04-1.85 88.77-2.15 89.49-2.45 89.49-3.15L89.49-3.15Q89.49-3.95 89.14-4.85L89.14-4.85 87.94-8.7Q86.94-8.75 83.79-8.75L83.79-8.75Q82.34-8.75 79.49-8.45L79.49-8.45 78.09-4.75Q77.74-3.6 77.74-3.35L77.74-3.35Q77.74-2.55 78.29-2.2 78.84-1.85 80.09-1.85L80.09-1.85 82.24-1.85 82.39-1.65 82.09 0.25Q81.59 0.2 79.82 0.1 78.04 0 76.34 0L76.34 0Q74.74 0 73.47 0.05 72.19 0.1 71.74 0.1L71.74 0.1 72.04-1.95Q73.14-2.1 73.79-2.73 74.44-3.35 75.09-4.85L75.09-4.85 82.94-24.7 86.49-25.35 86.84-25.3Q86.84-25.1 89.12-17.4 91.39-9.7 93.19-4.65L93.19-4.65Q93.69-3.2 94.47-2.63 95.24-2.05 96.94-1.9L96.94-1.9 97.04-1.7 96.79 0.1Q96.29 0.1 94.94 0.05 93.59 0 92.24 0L92.24 0Q90.19 0 88.34 0.15 86.49 0.3 85.94 0.35L85.94 0.35ZM80.29-10.8L83.69-10.8Q85.44-10.8 87.34-11L87.34-11 84.29-20.7 83.94-20.7 80.29-10.8ZM120.34-6.8L120.29-21.25Q120.29-22.9 118.94-22.9L118.94-22.9 117.44-22.9 117.34-23.1 117.69-25.05Q118.14-25 119.39-24.95 120.64-24.9 121.94-24.9L121.94-24.9Q123.04-24.9 124.42-25.03 125.79-25.15 126.19-25.2L126.19-25.2 125.99-23.15Q124.54-22.95 123.92-22.38 123.29-21.8 123.24-20.65L123.24-20.65 122.64 0.85 120.69 1.4Q115.94-5.55 111.09-12.2 106.24-18.85 106.24-18.75L106.24-18.75 105.99-18.75 105.84-3.6Q105.84-2.65 106.14-2.3 106.44-1.95 107.14-1.95L107.14-1.95 109.14-2 109.29-1.85 108.89 0.15Q108.44 0.1 107.12 0.05 105.79 0 104.34 0L104.34 0Q103.19 0 101.89 0.13 100.59 0.25 100.19 0.3L100.19 0.3 100.44-1.75Q101.69-1.9 102.29-2.48 102.89-3.05 102.94-4.2L102.94-4.2 103.49-20.7Q103.49-21.95 102.77-22.43 102.04-22.9 99.99-23.15L99.99-23.15 99.79-23.4 100.14-25.1Q100.54-25.05 101.67-24.98 102.79-24.9 103.94-24.9L103.94-24.9Q105.04-24.9 105.89-24.95 106.74-25 106.99-25.05L106.99-25.05Q111.04-19.1 115.57-12.9 120.09-6.7 120.09-6.8L120.09-6.8 120.34-6.8ZM151.04-6.8L150.99-21.25Q150.99-22.9 149.64-22.9L149.64-22.9 148.14-22.9 148.04-23.1 148.39-25.05Q148.84-25 150.09-24.95 151.34-24.9 152.64-24.9L152.64-24.9Q153.74-24.9 155.11-25.03 156.49-25.15 156.89-25.2L156.89-25.2 156.69-23.15Q155.24-22.95 154.61-22.38 153.99-21.8 153.94-20.65L153.94-20.65 153.34 0.85 151.39 1.4Q146.64-5.55 141.79-12.2 136.94-18.85 136.94-18.75L136.94-18.75 136.69-18.75 136.54-3.6Q136.54-2.65 136.84-2.3 137.14-1.95 137.84-1.95L137.84-1.95 139.84-2 139.99-1.85 139.59 0.15Q139.14 0.1 137.81 0.05 136.49 0 135.04 0L135.04 0Q133.89 0 132.59 0.13 131.29 0.25 130.89 0.3L130.89 0.3 131.14-1.75Q132.39-1.9 132.99-2.48 133.59-3.05 133.64-4.2L133.64-4.2 134.19-20.7Q134.19-21.95 133.46-22.43 132.74-22.9 130.69-23.15L130.69-23.15 130.49-23.4 130.84-25.1Q131.24-25.05 132.36-24.98 133.49-24.9 134.64-24.9L134.64-24.9Q135.74-24.9 136.59-24.95 137.44-25 137.69-25.05L137.69-25.05Q141.74-19.1 146.26-12.9 150.79-6.7 150.79-6.8L150.79-6.8 151.04-6.8ZM172.34 0.35L172.19 0.1 172.34-1.7Q174.44-1.85 175.16-2.15 175.89-2.45 175.89-3.15L175.89-3.15Q175.89-3.95 175.54-4.85L175.54-4.85 174.34-8.7Q173.34-8.75 170.19-8.75L170.19-8.75Q168.74-8.75 165.89-8.45L165.89-8.45 164.49-4.75Q164.14-3.6 164.14-3.35L164.14-3.35Q164.14-2.55 164.69-2.2 165.24-1.85 166.49-1.85L166.49-1.85 168.64-1.85 168.79-1.65 168.49 0.25Q167.99 0.2 166.21 0.1 164.44 0 162.74 0L162.74 0Q161.14 0 159.86 0.05 158.59 0.1 158.14 0.1L158.14 0.1 158.44-1.95Q159.54-2.1 160.19-2.73 160.84-3.35 161.49-4.85L161.49-4.85 169.34-24.7 172.89-25.35 173.24-25.3Q173.24-25.1 175.51-17.4 177.79-9.7 179.59-4.65L179.59-4.65Q180.09-3.2 180.86-2.63 181.64-2.05 183.34-1.9L183.34-1.9 183.44-1.7 183.19 0.1Q182.69 0.1 181.34 0.05 179.99 0 178.64 0L178.64 0Q176.59 0 174.74 0.15 172.89 0.3 172.34 0.35L172.34 0.35ZM166.69-10.8L170.09-10.8Q171.84-10.8 173.74-11L173.74-11 170.69-20.7 170.34-20.7 166.69-10.8Z" opacity="1" transform="matrix(1,0,0,1,0,0)" fill="black" class="wordmark-text-0" id="SvgjsPath2369"></path></svg></g></svg></g></svg></g></svg></g><g transform="matrix(1,0,0,1,79.72746700972,0)"><svg viewBox="0 0 32.54506598055999 49.15955026308502" height="49.15955026308502" width="32.54506598055999"><g><svg xmlns="http://www.w3.org/2000/svg" xmlns:xlink="http://www.w3.org/1999/xlink" version="1.1" x="0" y="0" viewBox="24.761855407245655 5 59.58264309935908 90" enable-background="new 0 0 100 100" xml:space="preserve" width="32.54506598055999" height="49.15955026308502" class="icon-icon-0" data-fill-palette-color="accent" id="SvgjsSvg2368"><g fill="black"><path d="M73.76 35.603C86.875 48 91.5 66.25 65.633 82.379c3.64-4.928 5.654-9.794 6.096-14.669 0.951-10.516-5.606-19.072-12.835-26.752C48.298 29.7 47.51 18.84 56.413 6.782 54.578 22.641 64.6 26.944 73.76 35.603zM45.288 93.716c6.184-13.053 7.276-20.302-8.197-34.939-4.204-3.977-7.451-8.029-9.71-12.086-2.881 6.435-5.164 20.081 3.244 27.935C36.312 79.938 44.125 83.125 45.288 93.716zM56.709 43.014C48.183 33.954 41.999 21.253 54 5 21.497 17.692 19.625 38.125 39.151 56.597 55.603 72.158 54.75 80.75 48 95 79.875 71.5 68.709 55.764 56.709 43.014z" fill="black"></path></g></svg></g></svg></g><g></g></svg></g></svg></g></svg></g></svg></g><defs><mask></mask></defs></svg><rect width="320" height="360" fill="black" stroke="none" visibility="hidden"></rect></g></mask></svg><rect width="320" height="360" fill="black" stroke="none" visibility="hidden"></rect></g></mask></svg><rect width="320" height="360" fill="black" stroke="none" visibility="hidden"></rect></g></mask><linearGradient x1="0.054" x2="0.941" y1="0.5" y2="0.5" id="ba927153-5201-41c2-aa45-b29cbbe15dbe"><stop stop-color="#9c7945" offset="0"></stop><stop stop-color="#faf3aa" offset="0.498"></stop><stop stop-color="#9c7945" offset="1"></stop></linearGradient></svg><rect width="320" height="360" fill="none" stroke="none" visibility="hidden"></rect></g></svg></g></svg>